<?xml version="1.0" encoding="UTF-8" standalone="no" ?>
<!DOCTYPE svg PUBLIC "-//W3C//DTD SVG 1.1//EN" "http://www.w3.org/Graphics/SVG/1.1/DTD/svg11.dtd">
<svg xmlns="http://www.w3.org/2000/svg" xmlns:xlink="http://www.w3.org/1999/xlink" version="1.1" width="1080" height="1080" viewBox="0 0 1080 1080" xml:space="preserve">
<desc>Created with Fabric.js 5.2.4</desc>
<defs>
</defs>
<g transform="matrix(1 0 0 1 540 540)" id="ed2d29c3-90e1-464d-ba8d-ef0bc5644c9e"  >
<rect style="stroke: none; stroke-width: 1; stroke-dasharray: none; stroke-linecap: butt; stroke-dashoffset: 0; stroke-linejoin: miter; stroke-miterlimit: 4; fill: rgb(255,255,255); fill-rule: nonzero; opacity: 1; visibility: hidden;" vector-effect="non-scaling-stroke"  x="-540" y="-540" rx="0" ry="0" width="1080" height="1080" />
</g>
<g transform="matrix(1 0 0 1 540 540)" id="d3a56dfc-b30c-4c7d-99bd-ac8b612cea9c"  >
</g>
<g transform="matrix(2.16 0 0 2.16 540 540)"  >
<g style=""   >
		<g transform="matrix(1 0 0 1 0 132.52)" id="freepik--background-complete--inject-63"  >
<rect style="stroke: none; stroke-width: 1; stroke-dasharray: none; stroke-linecap: butt; stroke-dashoffset: 0; stroke-linejoin: miter; stroke-miterlimit: 4; fill: rgb(235,235,235); fill-rule: nonzero; opacity: 1;" vector-effect="non-scaling-stroke"  x="-250" y="-0.125" rx="0" ry="0" width="500" height="0.25" />
</g>
		<g transform="matrix(1 0 0 1 183.34 148.62)" id="freepik--background-complete--inject-63"  >
<rect style="stroke: none; stroke-width: 1; stroke-dasharray: none; stroke-linecap: butt; stroke-dashoffset: 0; stroke-linejoin: miter; stroke-miterlimit: 4; fill: rgb(235,235,235); fill-rule: nonzero; opacity: 1;" vector-effect="non-scaling-stroke"  x="-16.56" y="-0.125" rx="0" ry="0" width="33.12" height="0.25" />
</g>
		<g transform="matrix(1 0 0 1 16.77 145.49)" id="freepik--background-complete--inject-63"  >
<rect style="stroke: none; stroke-width: 1; stroke-dasharray: none; stroke-linecap: butt; stroke-dashoffset: 0; stroke-linejoin: miter; stroke-miterlimit: 4; fill: rgb(235,235,235); fill-rule: nonzero; opacity: 1;" vector-effect="non-scaling-stroke"  x="-6.445" y="-0.125" rx="0" ry="0" width="12.89" height="0.25" />
</g>
		<g transform="matrix(1 0 0 1 86.1 146.55)" id="freepik--background-complete--inject-63"  >
<rect style="stroke: none; stroke-width: 1; stroke-dasharray: none; stroke-linecap: butt; stroke-dashoffset: 0; stroke-linejoin: miter; stroke-miterlimit: 4; fill: rgb(235,235,235); fill-rule: nonzero; opacity: 1;" vector-effect="non-scaling-stroke"  x="-13.57" y="-0.125" rx="0" ry="0" width="27.14" height="0.25" />
</g>
		<g transform="matrix(1 0 0 1 137.73 139.33)" id="freepik--background-complete--inject-63"  >
<rect style="stroke: none; stroke-width: 1; stroke-dasharray: none; stroke-linecap: butt; stroke-dashoffset: 0; stroke-linejoin: miter; stroke-miterlimit: 4; fill: rgb(235,235,235); fill-rule: nonzero; opacity: 1;" vector-effect="non-scaling-stroke"  x="-28.055" y="-0.125" rx="0" ry="0" width="56.11" height="0.25" />
</g>
		<g transform="matrix(1 0 0 1 -184.28 150.9)" id="freepik--background-complete--inject-63"  >
<rect style="stroke: none; stroke-width: 1; stroke-dasharray: none; stroke-linecap: butt; stroke-dashoffset: 0; stroke-linejoin: miter; stroke-miterlimit: 4; fill: rgb(235,235,235); fill-rule: nonzero; opacity: 1;" vector-effect="non-scaling-stroke"  x="-13.265" y="-0.125" rx="0" ry="0" width="26.53" height="0.25" />
</g>
		<g transform="matrix(1 0 0 1 -150.61 150.9)" id="freepik--background-complete--inject-63"  >
<rect style="stroke: none; stroke-width: 1; stroke-dasharray: none; stroke-linecap: butt; stroke-dashoffset: 0; stroke-linejoin: miter; stroke-miterlimit: 4; fill: rgb(235,235,235); fill-rule: nonzero; opacity: 1;" vector-effect="non-scaling-stroke"  x="-11.5" y="-0.125" rx="0" ry="0" width="23" height="0.25" />
</g>
		<g transform="matrix(1 0 0 1 -88.59 145.37)" id="freepik--background-complete--inject-63"  >
<rect style="stroke: none; stroke-width: 1; stroke-dasharray: none; stroke-linecap: butt; stroke-dashoffset: 0; stroke-linejoin: miter; stroke-miterlimit: 4; fill: rgb(235,235,235); fill-rule: nonzero; opacity: 1;" vector-effect="non-scaling-stroke"  x="-30.405" y="-0.125" rx="0" ry="0" width="60.81" height="0.25" />
</g>
		<g transform="matrix(1 0 0 1 -109.54 -53.6)" id="freepik--background-complete--inject-63"  >
<path style="stroke: none; stroke-width: 1; stroke-dasharray: none; stroke-linecap: butt; stroke-dashoffset: 0; stroke-linejoin: miter; stroke-miterlimit: 4; fill: rgb(235,235,235); fill-rule: nonzero; opacity: 1;" vector-effect="non-scaling-stroke"  transform=" translate(-140.46, -196.4)" d="M 237 337.8 L 43.91 337.8 C 40.76036002724501 337.7944839845871 38.209995169860214 335.2396448028911 38.209999999999994 332.09000000000003 L 38.209999999999994 60.66 C 38.237405461492756 57.52989179880672 40.779776420281294 55.00536203972899 43.90999999999999 55 L 237 55 C 238.5143861569838 55 239.9667469996369 55.601587558486536 241.0375797205752 56.67242027942481 C 242.10841244151348 57.74325300036309 242.71 59.195613843016204 242.71 60.71 L 242.71 332.09 C 242.71 333.60438615698376 242.10841244151348 335.0567469996369 241.0375797205752 336.12757972057517 C 239.96674699963694 337.1984124415135 238.51438615698382 337.8 237 337.8 Z M 43.91 55.2 C 40.898431246908906 55.20551570293369 38.45999494898575 57.6484261958989 38.459999999999994 60.660000000000004 L 38.459999999999994 332.09 C 38.45999494898576 335.10157380410106 40.89843124690891 337.5444842970663 43.91 337.54999999999995 L 237 337.54999999999995 C 240.0131921402317 337.54449643895015 242.45449643895017 335.10319214023167 242.46 332.09 L 242.46 60.66 C 242.45449643895017 57.6468078597683 240.0131921402317 55.205503561049824 237 55.2 Z" stroke-linecap="round" />
</g>
		<g transform="matrix(1 0 0 1 106.75 -53.6)" id="freepik--background-complete--inject-63"  >
<path style="stroke: none; stroke-width: 1; stroke-dasharray: none; stroke-linecap: butt; stroke-dashoffset: 0; stroke-linejoin: miter; stroke-miterlimit: 4; fill: rgb(235,235,235); fill-rule: nonzero; opacity: 1;" vector-effect="non-scaling-stroke"  transform=" translate(-356.75, -196.4)" d="M 453.31 337.8 L 260.21 337.8 C 257.05873689262756 337.7944955977045 254.50550440229551 335.24126310737245 254.49999999999997 332.09000000000003 L 254.49999999999997 60.66 C 254.53284752320988 57.52828035892403 257.0781125902332 55.00530307707603 260.21 55 L 453.30999999999995 55 C 456.4363232788133 55.01083071187344 458.97264273582635 57.53377765856827 459 60.66 L 459 332.09 C 459.0000192967236 335.23575191838614 456.4557326217217 337.788981604548 453.31 337.8 Z M 260.21 55.2 C 257.1968078597683 55.20550356104983 254.7555035610498 57.64680785976831 254.74999999999997 60.660000000000004 L 254.74999999999997 332.09 C 254.7555035610498 335.10319214023167 257.1968078597683 337.54449643895015 260.21 337.54999999999995 L 453.30999999999995 337.54999999999995 C 456.32319214023164 337.5444964389501 458.76449643895006 335.10319214023167 458.7699999999999 332.09 L 458.7699999999999 60.66 C 458.7644964389501 57.64680785976831 456.32319214023164 55.20550356104984 453.30999999999995 55.199999999999996 Z" stroke-linecap="round" />
</g>
		<g transform="matrix(1 0 0 1 86.09 -77.98)" id="freepik--background-complete--inject-63"  >
<path style="stroke: none; stroke-width: 1; stroke-dasharray: none; stroke-linecap: butt; stroke-dashoffset: 0; stroke-linejoin: miter; stroke-miterlimit: 4; fill: rgb(235,235,235); fill-rule: nonzero; opacity: 1;" vector-effect="non-scaling-stroke"  transform=" translate(-336.09, -172.02)" d="M 467.06 194.17 C 470.1941525112845 183.337137425909 469.844336570796 171.79321138978548 466.06 161.17 C 474.20163145035417 149.51531615480422 476.5630106496317 134.775990519355 472.46979278451863 121.16116823944321 C 468.3765749194056 107.54634595953144 458.2787579206724 96.55280586679122 445.06 91.32 C 441.17872912161135 63.340583886225275 422.87147485098706 39.46296909344808 396.8584995832697 28.452196758125346 C 370.8455243155523 17.441424422802612 340.9591025736926 20.919619729170208 318.17 37.61000000000001 C 306.65155300493444 25.514099258866263 288.9468647818517 21.614738910902204 273.41257106773355 27.75242208299613 C 257.8782773536154 33.890105255090056 247.6201348166082 48.837730748468076 247.48000000000002 65.54 C 226.01229146756765 69.84621969565279 208.41576807373872 85.17150165783411 201.20230586371252 105.84447920450653 C 193.98884365368636 126.51745675117894 198.23141946811998 149.46309801981013 212.36 166.18999999999997 C 205.47931498615506 178.59715946166924 204.62688450258446 193.46344172012277 210.04428566891622 206.57577167212088 C 215.46168683524797 219.68810162411899 226.5585330653268 229.61750189117015 240.19 233.55 C 248.04560466495548 235.8259776282379 256.36329624131 235.98467269771623 264.3 234.01 C 286.62670934963853 264.7781058455087 329.0384771169894 272.86446437665205 361.12 252.47000000000003 C 368.65 269.96000000000004 374.83 296.20000000000005 361.52 321.93 C 409.87 317.19 444.78 270.82 437.65999999999997 228.33 C 451.9704810207799 221.77272438454628 462.70733277977786 209.29752519790105 467.06 194.17 Z" stroke-linecap="round" />
</g>
		<g transform="matrix(1 0 0 1 86.13 -79.29)" id="freepik--background-complete--inject-63"  >
<path style="stroke: none; stroke-width: 1; stroke-dasharray: none; stroke-linecap: butt; stroke-dashoffset: 0; stroke-linejoin: miter; stroke-miterlimit: 4; fill: rgb(255,255,255); fill-rule: nonzero; opacity: 1;" vector-effect="non-scaling-stroke"  transform=" translate(-336.13, -170.71)" d="M 374.32 312.33 C 374.05419701535 312.3315367587996 373.7987188308047 312.2271865144079 373.61 312.03999999999996 C 373.3480562291946 311.77860107590095 373.25188440180654 311.3939137663487 373.36 311.03999999999996 C 380.17 287.31999999999994 373.96000000000004 264.58 367.56 249.67999999999995 L 364.31 242.12999999999994 L 357.37 246.53999999999994 C 328.4241605330132 264.9468536847655 290.153531974115 257.658044491449 270 229.9 L 267.22 226.07 L 262.64000000000004 227.20999999999998 C 247.3471025617479 231.01621714346797 231.25375976262174 225.38245317171157 221.67383606796125 212.86905782893547 C 212.09391237330078 200.35566248615933 210.85494440309617 183.3497829938057 218.52000000000004 169.57999999999998 L 220.85000000000005 165.35999999999999 L 217.74000000000004 161.67999999999998 C 205.20402352456415 146.84844666910226 201.4344886760402 126.49840426937578 207.82637609550042 108.1607529580194 C 214.21826351496068 89.82310164666302 229.82079965707035 76.22551051517709 248.86000000000004 72.4 L 254.42000000000002 71.28 L 254.48000000000002 65.62 C 254.58494649062177 51.76185759614562 263.09045228896395 39.35428374917901 275.97829748133256 34.258935777848535 C 288.86614267370123 29.16358780651806 303.5567902167952 32.40031337692848 313.11 42.44 L 317.35 46.88 L 322.35 43.260000000000005 C 343.14676315616896 28.00522345654993 370.43496417921585 24.81547566785761 394.1892973147011 34.8626256345281 C 417.94363045018633 44.90977560119859 434.66112278284345 66.7122033590709 438.20000000000005 92.26000000000002 L 438.77000000000004 96.26 L 442.56000000000006 97.76 C 453.7881929497829 102.20477825551036 462.3638319544382 111.54503280713246 465.8357955812779 123.11109692731233 C 469.3077592081177 134.6771610474922 467.2939638207763 147.19620923675905 460.37000000000006 157.09 L 458.31000000000006 160.04 L 459.52000000000004 163.44 C 467.6860793596808 186.43218826682838 456.9291933722044 211.8528195592664 434.74000000000007 222 L 429.87 224.24 L 430.76 229.52 C 433.76 247.65 428.33 267.45 415.76 283.85 C 405.3811337684371 297.4473110709064 390.9667810589645 307.41274627339993 374.58 312.32000000000005 C 374.4942752333566 312.3359096457338 374.4066935288958 312.3392781728284 374.32 312.33 Z M 364.77 239.67999999999998 C 364.86615314981543 239.6659088733899 364.96384685018455 239.6659088733899 365.06 239.67999999999998 C 365.33847843003724 239.76725747855392 365.56494575078153 239.9718086069681 365.68 240.23999999999998 L 369.39 248.85999999999999 C 375.77 263.69 381.94 286.15 375.76 309.78999999999996 C 391.0382415819074 304.8217533630611 404.442288876998 295.3206800266503 414.19 282.54999999999995 C 426.41 266.54999999999995 431.73 247.34999999999997 428.79 229.76999999999995 L 427.79 223.76999999999995 C 427.7110387744581 223.32479691189332 427.94063798073245 222.8819984426498 428.35 222.68999999999994 L 433.91 220.13999999999993 C 455.11280605162017 210.42062047495335 465.3908370977608 186.12472606448995 457.6 164.1399999999999 L 456.22 160.25999999999993 C 456.1130861642374 159.95354422590466 456.16155510092125 159.61426166911787 456.35 159.34999999999994 L 458.70000000000005 155.96999999999994 C 465.27599910687303 146.5798332418405 467.1902867080834 134.69551640266047 463.89546899747427 123.71539016233457 C 460.6006512868651 112.73526392200867 452.459503227786 103.86829194537998 441.80000000000007 99.64999999999995 L 437.4600000000001 97.92999999999995 C 437.1265054633185 97.79705422981198 436.8898711314166 97.49553629077572 436.8400000000001 97.13999999999994 L 436.1900000000001 92.52999999999994 C 432.7609571026301 67.66886013658115 416.4984387571961 46.44830149768338 393.3838503629541 36.67331229742096 C 370.26926196871204 26.89832309715854 343.7158337020207 30.012333239748486 323.49000000000007 44.86999999999996 L 317.82 49 C 317.41719551919454 49.29583336302595 316.8578299155586 49.24886373218629 316.51 48.89 L 311.65999999999997 43.82 C 305.6077580858554 37.50745344936681 297.24515369761235 33.93276504506605 288.49999999999994 33.92 C 270.93952338636177 33.9192788739582 256.6591418046386 48.07024449759702 256.49999999999994 65.63000000000001 L 256.42999999999995 72.11 C 256.4397357053975 72.59276076374965 256.1031232170381 73.01352637419889 255.62999999999994 73.11 L 249.27999999999994 74.39 C 230.94249599474793 78.07774965051107 215.91472992910127 91.17347419695092 209.75394237991398 108.83439850462116 C 203.5931548307267 126.49532281229139 207.21495204659107 146.09670896856068 219.27999999999992 160.39 L 222.82999999999996 164.6 C 223.09766257934191 164.91732070899738 223.14143809316906 165.367014623767 222.93999999999997 165.73 L 220.27999999999997 170.54999999999998 C 218.90592123452618 173.02382777436344 217.81247501267245 175.64340292549156 217.01999999999998 178.35999999999999 C 213.2966848558512 191.2632885632441 216.74009188479388 205.17278299538873 226.0531015275484 214.84882468623294 C 235.36611117030293 224.52486637707713 249.13382779392 228.49740540100288 262.16999999999996 225.26999999999998 L 267.40999999999997 223.96999999999997 C 267.8047141834215 223.87126104434572 268.21989897142987 224.02151839619637 268.46 224.34999999999997 L 271.63 228.71999999999997 C 291.14380870788324 255.6718567776353 328.2786658660524 262.7516341723281 356.34 244.86999999999998 L 364.27 239.86999999999998 C 364.4163226818956 239.76244107823035 364.58917295772903 239.69675797341367 364.77 239.68 Z" stroke-linecap="round" />
</g>
		<g transform="matrix(1 0 0 1 49.89 -125.63)" id="freepik--background-complete--inject-63"  >
<path style="stroke: none; stroke-width: 1; stroke-dasharray: none; stroke-linecap: butt; stroke-dashoffset: 0; stroke-linejoin: miter; stroke-miterlimit: 4; fill: rgb(255,255,255); fill-rule: nonzero; opacity: 1;" vector-effect="non-scaling-stroke"  transform=" translate(-299.89, -124.37)" d="M 304.19 146.19 L 277.39 142 L 277.8 139.32 C 278.26897818068403 135.53687522853454 279.3781346545705 131.86110362147787 281.08 128.45 C 282.57308352627814 125.74983694545371 284.5531088999421 123.34939522532689 286.91999999999996 121.37 Q 290.53 118.36999999999999 302.64 111.10999999999999 C 306.93 108.58999999999999 309.28 106.04999999999998 309.64 103.45999999999998 C 310.11952651163335 101.23493916045899 309.6285452465341 98.91096117232247 308.28999999999996 97.06999999999998 C 306.98999999999995 95.39999999999998 304.78 94.31999999999998 301.67999999999995 93.83999999999997 C 298.593011687439 93.25393191512525 295.40135105702586 93.97848597424289 292.86999999999995 95.83999999999997 Q 289.06999999999994 98.64999999999998 286.86999999999995 106.75999999999998 L 260.03 99.10999999999997 Q 263.78999999999996 84.23999999999997 274.78999999999996 76.51999999999997 Q 285.78999999999996 68.79999999999997 305.53 71.87999999999997 Q 320.90999999999997 74.26999999999997 329.35999999999996 82.15999999999997 Q 340.84 92.83999999999997 338.59 107.29999999999997 C 337.9183376373844 111.36302950583571 336.1516575043686 115.16605914637861 333.47999999999996 118.29999999999997 Q 329.29999999999995 123.35999999999997 317.80999999999995 129.79999999999995 Q 309.80999999999995 134.34999999999997 307.40999999999997 137.46999999999994 C 305.6209839259086 140.05991420753418 304.5135463943124 143.05893758502447 304.19 146.19 Z M 275.36 149 L 304.07 153.47 L 300.13 178.79 L 271.42 174.32 Z" stroke-linecap="round" />
</g>
		<g transform="matrix(1 0 0 1 127.69 -81.95)" id="freepik--background-complete--inject-63"  >
<path style="stroke: none; stroke-width: 1; stroke-dasharray: none; stroke-linecap: butt; stroke-dashoffset: 0; stroke-linejoin: miter; stroke-miterlimit: 4; fill: rgb(255,255,255); fill-rule: nonzero; opacity: 1;" vector-effect="non-scaling-stroke"  transform=" translate(-377.69, -168.05)" d="M 372.59 185.42 L 357.71 173.42 L 358.91999999999996 171.92999999999998 C 360.54772839583006 169.78995074400208 362.5256093253224 167.9405475501007 364.77 166.45999999999998 C 366.6390898512927 165.3458970900151 368.6963241271001 164.58333084280474 370.84 164.20999999999998 C 375.2341115304455 163.69798932962448 379.65647009603623 163.46751898141773 384.0799999999999 163.51999999999998 Q 389.34 163.51999999999998 391.08 161.35 C 392.1712610713867 160.16720147288055 392.6965009031794 158.56959698451104 392.52 156.97 C 392.1467828331357 155.21246979600988 391.1120502036325 153.66574143633727 389.63 152.65 C 387.9516413375787 151.2003206010517 385.7434705348062 150.51865211021223 383.54 150.77 Q 380.22 151.13000000000002 376.01000000000005 155.3 L 362.34000000000003 141.11 Q 369.90000000000003 133.37 379.34000000000003 132.56 Q 388.78000000000003 131.75 399.76000000000005 140.63 Q 408.30000000000007 147.54 410.65000000000003 155.35999999999999 Q 413.87000000000006 165.95 407.38000000000005 173.96999999999997 C 405.53912255729233 176.22238530220253 403.11901995858716 177.93028627900304 400.38000000000005 178.90999999999997 Q 396.03000000000003 180.49999999999997 386.74000000000007 180.36999999999998 C 382.4100000000001 180.36999999999998 379.39000000000004 180.64999999999998 377.6700000000001 181.36999999999998 C 375.670082869775 182.28284934072045 373.925475346974 183.67372738547323 372.59 185.42 Z M 354 176.91 L 369.94 189.82 L 358.55 203.88 L 342.61 191 Z" stroke-linecap="round" />
</g>
		<g transform="matrix(1 0 0 1 130.76 -161.31)" id="freepik--background-complete--inject-63"  >
<path style="stroke: none; stroke-width: 1; stroke-dasharray: none; stroke-linecap: butt; stroke-dashoffset: 0; stroke-linejoin: miter; stroke-miterlimit: 4; fill: rgb(255,255,255); fill-rule: nonzero; opacity: 1;" vector-effect="non-scaling-stroke"  transform=" translate(-380.76, -88.69)" d="M 376.75 98.8 L 370.31 90 L 371.19 89.35 C 372.3949624822835 88.41413968505702 373.74657745231644 87.68426760123921 375.19 87.19 C 376.3810698667918 86.84689259574569 377.62554749388005 86.72820944329858 378.86 86.84 C 381.3513394350833 87.18962082461522 383.8167494525347 87.70408307757934 386.24 88.38000000000002 C 388.18 88.88000000000001 389.57 88.82000000000001 390.42 88.2 C 391.18830665729416 87.70386517342256 391.7085039156673 86.90356169900237 391.85 86 C 391.888807369623 84.97284908027586 391.5307112622937 83.97017997975388 390.85 83.2 C 390.13238588249504 82.16227752494544 389.01768562025495 81.46739943939316 387.77000000000004 81.28 C 386.52000000000004 81.1 384.92 81.56 382.97 82.68 L 377.5 72.89000000000001 C 380.63879205057947 70.85894979979548 384.4180719437133 70.06106224460041 388.11 70.65000000000002 Q 393.43 71.58000000000003 398.18 78.05000000000003 Q 401.87 83.11000000000003 402.04 87.74000000000002 C 402.36465372802064 91.56689012046316 400.65134848244975 95.28221723835297 397.53000000000003 97.52000000000002 C 396.20131427383967 98.48551643408192 394.63585378123395 99.07299608914366 393 99.22 C 390.3788681143096 99.27167038900095 387.76811713647453 98.87599958018396 385.28 98.04999999999998 C 383.62661530727013 97.4866874225668 381.8860673579946 97.22255757812421 380.14 97.27 C 378.90072273782175 97.49136268084708 377.73584238524865 98.01710514085794 376.75 98.8 Z M 367.75 91.42 L 374.65 100.84 L 366.34 106.92 L 359.44 97.51 Z" stroke-linecap="round" />
</g>
		<g transform="matrix(1 0 0 1 -130.44 -108.06)" id="freepik--background-complete--inject-63"  >
<path style="stroke: none; stroke-width: 1; stroke-dasharray: none; stroke-linecap: butt; stroke-dashoffset: 0; stroke-linejoin: miter; stroke-miterlimit: 4; fill: rgb(230,230,230); fill-rule: nonzero; opacity: 1;" vector-effect="non-scaling-stroke"  transform=" translate(-119.56, -141.94)" d="M 128.34 223.57 C 119.88709976357055 223.5551945588435 111.59511901341054 221.25762489265335 104.34 216.92 C 94.19 210.92 87.02000000000001 201.5 84.58 191.13 C 69.93624137036845 190.1097718965348 58.35272123050625 178.3289028950305 57.58 163.67 C 55.449672081109696 162.1918837302362 53.566425107520615 160.3862616319026 52 158.32 C 44.12084865956929 148.27996223238608 45.069188060073714 133.91693094838266 54.2 125 C 50.797719807696744 110.54175690637877 55.142081161136495 95.35368262501876 65.67538992403098 84.8815429025592 C 76.20869868692547 74.40940318009964 91.42181721037537 70.15357179988297 105.86000000000003 73.64000000000001 C 109.01169029766832 66.4413613651175 115.72545416392092 61.43787098273778 123.52461996923357 60.47528972939787 C 131.32378577454622 59.512708476057966 139.05262114688162 62.73367805767513 143.86 68.95 C 144.95665956928195 70.36829566234762 145.87987373090493 71.91258116906242 146.61 73.55 C 157.97892293747546 71.68173196363746 169.50274161395413 75.84859367107205 177.04768696339607 84.55586843921182 C 184.59263231283802 93.26314320735159 187.07714782885142 105.26265636530646 183.61 116.24999999999997 C 191.0853765670648 122.6179253809796 194.1727402745563 132.75313166561023 191.51701481320222 142.20717052479952 C 188.86128935184814 151.6612093839888 180.94785457631204 158.70619136747806 171.25 160.25 C 169.1075326329391 168.3560630923092 164.34765997235917 175.52751082316817 157.71 180.65 C 149.264749221836 187.2065112378694 138.47188590872548 189.9527315773584 127.92000000000002 188.23000000000002 C 127.82000000000002 197.94000000000003 130.07000000000002 211.11 140.92000000000002 220.53000000000003 C 141.13312236073256 220.72047930932877 141.2284239813598 221.01019623603565 141.17000000000002 221.29000000000002 C 141.109228281988 221.57080126698443 140.89718116621606 221.7944145890712 140.62 221.87000000000003 C 136.62713227267287 223.01205592789773 132.49296011971092 223.58437617708628 128.34 223.57 Z M 95.73 74 C 83.08564739649736 74.03857993430903 71.15853153800303 79.87838707379474 63.373885653334796 89.84234359835632 C 55.58923976866656 99.80630012291789 52.808411476167 112.79192425639602 55.83 125.06999999999996 C 55.899938362776645 125.34637742133701 55.81144838294738 125.6387790938163 55.60000000000001 125.83 C 46.74884434450506 134.1363120361414 45.70315867754689 147.82568248947334 53.190000000000005 157.38 C 54.77843264768296 159.42069502470355 56.69041278153439 161.18741871729065 58.85000000000001 162.60999999999999 C 59.06226697302675 162.7471827152525 59.19608416466634 162.97764565640958 59.21000000000001 163.23 C 59.7717936824445 177.44733097737648 71.08947590586762 188.8864754860644 85.3 189.6 C 85.6527080397548 189.6197775892762 85.94809004316247 189.87413431443278 86.02 190.22 C 88.22999999999999 200.39 95.22 209.63 105.17999999999999 215.57 C 115.27169468700035 221.6562869451536 127.36104171479441 223.50401943765615 138.81 220.70999999999998 C 128.08 210.70999999999998 126.08 197.04999999999998 126.34 187.24999999999997 C 126.34841296615605 187.02027884887923 126.45523783536237 186.80527726067962 126.6332366319263 186.65981587854134 C 126.81123542849022 186.5143544964031 127.04320563993005 186.45249128751553 127.27000000000001 186.48999999999998 C 146.40544255304505 190.10895304050086 165.05208967164947 178.20944797139148 169.83 159.32999999999998 C 169.9023686912383 159.01699185528778 170.1614670677104 158.78181025202852 170.48000000000002 158.73999999999998 C 179.77542733804344 157.45503862632086 187.425332768156 150.78290399819082 189.9616878943886 141.74835930560522 C 192.4980430206212 132.71381461301965 189.43846851885567 123.035104086627 182.17000000000002 117.09999999999998 C 181.9182173692161 116.89608823962699 181.8187082316448 116.55775717188449 181.92000000000002 116.24999999999999 C 185.459624115307 105.64714238129967 183.13235906856156 93.96310841046326 175.800235325531 85.52572196814704 C 168.4681115825004 77.08833552583083 157.2229446916482 73.15399517116607 146.23000000000002 75.17999999999998 C 145.86505517006572 75.25065393013669 145.50095893309367 75.05395826188744 145.36 74.70999999999998 C 142.1560809025374 66.93781369782349 134.5679430477573 61.876895802143125 126.16132876356036 61.90542255382533 C 117.75471447936344 61.93394930550755 110.2010981139418 67.04624877384849 107.05000000000001 74.83999999999997 C 106.89915752063557 75.2002198823129 106.51027745251258 75.3988868736366 106.13000000000001 75.30999999999997 C 102.73217443971879 74.43794149105572 99.23794808341151 73.99780336348242 95.73000000000002 74 Z" stroke-linecap="round" />
</g>
		<g transform="matrix(1 0 0 1 -160.17 -118.83)" id="freepik--background-complete--inject-63"  >
<path style="stroke: none; stroke-width: 1; stroke-dasharray: none; stroke-linecap: butt; stroke-dashoffset: 0; stroke-linejoin: miter; stroke-miterlimit: 4; fill: rgb(235,235,235); fill-rule: nonzero; opacity: 1;" vector-effect="non-scaling-stroke"  transform=" translate(-89.83, -131.17)" d="M 100.59 140 L 86.78 143.25 L 86.46000000000001 141.87 C 85.93720521180245 139.94304824755255 85.75113734713898 137.94028141335664 85.91000000000001 135.95000000000002 C 86.09957677009147 134.35126166250998 86.58446774633276 132.80164504613046 87.34000000000002 131.38000000000002 C 89.03090729321886 128.57219525842348 90.901470571065 125.87657996338447 92.94 123.31000000000006 C 94.53000000000002 121.24000000000004 95.17000000000002 119.55000000000003 94.85000000000001 118.22000000000003 C 94.6513062940989 117.045339122484 93.95504035084338 116.01369900760803 92.94000000000001 115.39000000000003 C 91.74302183438739 114.8070169011302 90.36677972024164 114.71024987747933 89.10000000000001 115.12000000000003 C 87.48933325206924 115.44600300519592 86.08712739522386 116.42790943208247 85.23 117.83000000000003 C 84.37 119.24000000000002 84.12 121.39000000000003 84.47 124.30000000000003 L 70 125.84 C 69.15448239088484 121.05652805605685 70.1014919836368 116.12923002459544 72.66 112.00000000000001 Q 76.47 106.09 86.66 103.7 Q 94.58 101.83 100.22999999999999 103.99000000000001 Q 107.88999999999999 106.9 109.64999999999999 114.36000000000001 C 110.1377651692427 116.46715980733639 110.03394678164962 118.6681096243095 109.35 120.72 Q 108.35 123.99000000000001 104.02 129.38000000000002 Q 101.02 133.16000000000003 100.49 135.14000000000001 C 100.11593841773889 136.74282509839927 100.15032305548144 138.41391849268675 100.59 140 Z M 87.17 147 L 101.97 143.52 L 105 156.56 L 90.25 160 Z" stroke-linecap="round" />
</g>
		<g transform="matrix(1 0 0 1 -113.53 -147.7)" id="freepik--background-complete--inject-63"  >
<path style="stroke: none; stroke-width: 1; stroke-dasharray: none; stroke-linecap: butt; stroke-dashoffset: 0; stroke-linejoin: miter; stroke-miterlimit: 4; fill: rgb(235,235,235); fill-rule: nonzero; opacity: 1;" vector-effect="non-scaling-stroke"  transform=" translate(-136.47, -102.3)" d="M 135.75 110.79 L 126.17 107.87 L 126.46000000000001 106.87 C 126.82702284219977 105.50962194842822 127.42212949002302 104.22135130740175 128.22 103.06 C 128.9034722455544 102.15039616427008 129.75146089053962 101.37703052004358 130.72 100.78 C 132.74796654473545 99.6805401652505 134.84579342619804 98.71513894113795 136.99999999999997 97.89000000000001 Q 139.55 96.89 140 95.46 C 140.29697861369374 94.67122275152539 140.23864645897245 93.79259467103617 139.84 93.05 C 139.31300826307242 92.27127913779735 138.50792336595177 91.72382140775532 137.59 91.52 C 136.49083848914654 91.15346758135554 135.2889675891439 91.25845028045217 134.27 91.81 C 132.97131915999898 92.70078969644811 132.00152747338993 93.99384527859355 131.51000000000002 95.49000000000001 L 122.09000000000002 91.30000000000001 C 123.2800938052653 88.08092386782248 125.6158714653924 85.41400699673223 128.65 83.81000000000002 Q 133.07 81.54000000000002 140.13 83.70000000000002 C 143.30089461680078 84.49792455482687 146.15392495330295 86.24183062848344 148.31 88.70000000000002 C 150.66809091709538 91.32291656224061 151.45963344089643 94.99902270643199 150.39000000000001 98.36000000000001 C 149.9378334331581 99.81951325522395 149.0938616445929 101.12697774734548 147.95000000000002 102.14000000000001 C 146.04545200388966 103.62006840039663 143.90563135362137 104.76941914461656 141.62 105.54000000000002 C 140.09928156593483 106.04348579324846 138.67799759104727 106.80827193211654 137.42000000000002 107.80000000000003 C 136.624348824818 108.64301685033962 136.05050836122618 109.67043181209978 135.75 110.79 Z M 125.07 110.32000000000001 L 135.32999999999998 113.44000000000001 L 132.57999999999998 122.50000000000001 L 122.30999999999999 119.38000000000001 Z" stroke-linecap="round" />
</g>
		<g transform="matrix(1 0 0 1 0 166.24)" id="freepik--path--inject-63"  >
<ellipse style="stroke: none; stroke-width: 1; stroke-dasharray: none; stroke-linecap: butt; stroke-dashoffset: 0; stroke-linejoin: miter; stroke-miterlimit: 4; fill: rgb(245,245,245); fill-rule: nonzero; opacity: 1;" vector-effect="non-scaling-stroke"  cx="0" cy="0" rx="193.89" ry="11.32" />
</g>
		<g transform="matrix(1 0 0 1 -97.03 -12.67)" id="freepik--question-marks--inject-63"  >
<path style="stroke: none; stroke-width: 1; stroke-dasharray: none; stroke-linecap: butt; stroke-dashoffset: 0; stroke-linejoin: miter; stroke-miterlimit: 4; fill: rgb(67,185,178); fill-rule: nonzero; opacity: 1;" vector-effect="non-scaling-stroke"  transform=" translate(-152.97, -237.33)" d="M 157.61 247.44 L 156.69000000000003 247.05 C 157.41307186832614 245.46240390700643 157.90151258210835 243.77812558361956 158.14000000000001 242.05 L 159.14000000000001 242.16000000000003 C 158.88948708192467 243.98504047080453 158.37405940022919 245.76377129391054 157.61 247.44 Z M 157.22 236 C 155.32847097907296 231.774558856017 151.3800425493143 228.83311217344513 146.79 228.23 L 146.95 227.23 C 151.87316030249468 227.88465598001767 156.10482998472108 231.04516061745866 158.13 235.57999999999998 Z" stroke-linecap="round" />
</g>
		<g transform="matrix(1 0 0 1 -108.11 2.25)" id="freepik--question-marks--inject-63"  >
<path style="stroke: none; stroke-width: 1; stroke-dasharray: none; stroke-linecap: butt; stroke-dashoffset: 0; stroke-linejoin: miter; stroke-miterlimit: 4; fill: rgb(67,185,178); fill-rule: nonzero; opacity: 1;" vector-effect="non-scaling-stroke"  transform=" translate(-141.89, -252.25)" d="M 152 257.5 L 142.14 262 L 141.7 261 C 141.0256470100726 259.64101794869845 140.58932426030464 258.17646174211296 140.41 256.67 C 140.31490985409084 255.44300538602195 140.44712489504676 254.20899833709998 140.79999999999998 253.03000000000003 C 141.65360210050912 250.6820638365861 142.65562333692034 248.39077527599244 143.79999999999998 246.17000000000002 Q 145.11999999999998 243.50000000000003 144.46999999999997 242.08 C 144.1447676970873 241.23261954608614 143.4708654267869 240.56600270573495 142.61999999999998 240.25 C 141.6381448043 240.000371126189 140.59814424050563 240.13260487485013 139.70999999999998 240.62 C 138.5565415988243 241.11077370954888 137.6559802324322 242.0547356237189 137.21999999999997 243.23000000000002 Q 136.56999999999996 244.98000000000002 137.61999999999998 248.17000000000002 L 127 251.49 C 125.67187427359366 248.02973070935104 125.67187427359366 244.200269290649 127 240.74 Q 129 235.74 136.22 232.47 C 139.98 230.75 143.38 230.16 146.41 230.67 C 150.1870493933352 231.12610392240887 153.44399903982276 233.53936299536056 154.98 237.01999999999998 C 155.65505249399868 238.52387033054288 155.9041102334678 240.18425526033712 155.7 241.82 C 155.2168991030245 244.37523633806785 154.30395552654002 246.83004017705943 153 249.07999999999998 C 152.12315484379232 250.57086150889373 151.52031092607177 252.20666831933772 151.22 253.91 C 151.17794217820304 255.15286325048206 151.44600535084504 256.3866411861036 152 257.5 Z M 143 264.74 L 153.54 260 L 157.76999999999998 269.29 L 147.23 274 Z" stroke-linecap="round" />
</g>
		<g transform="matrix(1 0 0 1 -130.02 27.89)" id="freepik--question-marks--inject-63"  >
<path style="stroke: none; stroke-width: 1; stroke-dasharray: none; stroke-linecap: butt; stroke-dashoffset: 0; stroke-linejoin: miter; stroke-miterlimit: 4; fill: rgb(67,185,178); fill-rule: nonzero; opacity: 1;" vector-effect="non-scaling-stroke"  transform=" translate(-119.98, -277.89)" d="M 127.64 279.73 L 122.64 286.53000000000003 L 122 286 C 121.02481024567564 285.3235342206565 120.16967216958264 284.4886760989372 119.47 283.53 C 118.93868227584754 282.7305179778618 118.56216231883596 281.83840312476224 118.36 280.9 C 118.03696099372533 278.97869992298996 117.8465111734837 277.03744824649203 117.78999999999999 275.09 C 117.71000000000001 273.53999999999996 117.34 272.53 116.69000000000001 272.09 C 116.13699516683418 271.6208257491053 115.40514671065638 271.41956742365636 114.69000000000001 271.53999999999996 C 113.92478832717768 271.740248934976 113.26594800565852 272.2272178682728 112.85000000000001 272.9 C 112.24805182769423 273.66980601446727 111.99109616778877 274.65419952847134 112.14000000000001 275.62 C 112.48730679813221 276.8986367977048 113.24213663158099 278.02912612966065 114.29000000000002 278.84000000000003 L 108.29000000000002 285.15000000000003 C 106.06829519464947 283.29690791995034 104.60549114748837 280.69162187975104 104.18000000000002 277.83000000000004 Q 103.63000000000002 273.69000000000005 107.32000000000002 268.68000000000006 C 108.84564575827235 266.39089102443137 111.02779758553565 264.61658546520295 113.58000000000003 263.5900000000001 C 116.32675134922849 262.45551148074344 119.46871086325517 262.85871693895996 121.84000000000003 264.6500000000001 C 122.87464814276106 265.41747297732473 123.67744627300686 266.45557400781496 124.16000000000003 267.6500000000001 C 124.80186398227995 269.58404049080553 125.11289392366648 271.61249663028286 125.08000000000003 273.6500000000001 C 125.04553983228868 275.00969820173856 125.25553945975834 276.36453450799434 125.70000000000003 277.6500000000001 C 126.1626233624392 278.49460470258276 126.82962504779451 279.20974053018017 127.64 279.73 Z M 124.27 288.09000000000003 L 129.63 280.81000000000006 L 136.04999999999998 285.5400000000001 L 130.68999999999997 292.82000000000005 Z" stroke-linecap="round" />
</g>
		<g transform="matrix(1 0 0 1 -25.34 130.37)" id="freepik--Character--inject-63"  >
<path style="stroke: none; stroke-width: 1; stroke-dasharray: none; stroke-linecap: butt; stroke-dashoffset: 0; stroke-linejoin: miter; stroke-miterlimit: 4; fill: rgb(67,185,178); fill-rule: nonzero; opacity: 1;" vector-effect="non-scaling-stroke"  transform=" translate(-224.66, -380.37)" d="M 234.09 412.64 C 232.40719136468638 412.6416318709263 230.8640915449761 411.70419873045233 230.09 410.21 C 226.09 402.45 221.02 393.34 211.94 383.47999999999996 C 210.8762030392944 382.32898676351385 210.4963510446019 380.70322022623 210.94 379.2 C 214.31 367.49 219.60999999999999 351.48 219.66 351.32 C 220.1212375261902 349.74474439275036 221.4052860088126 348.54670800486866 223.00869122681712 348.19562113440304 C 224.61209644482162 347.8445342639374 226.2792993777406 348.3963549530022 227.35661726726352 349.63472341539585 C 228.43393515678645 350.87309187778953 228.74965950309848 352.6006305400369 228.18 354.14 C 228.13 354.28999999999996 223.56 368.08 220.25 379.28999999999996 C 227.30645516749388 387.42846337554425 233.2948776062585 396.4346205786247 238.0699999999999 406.08999999999986 C 238.7834157330706 407.48409210877685 238.72075609726255 409.1488245898727 237.90456165217898 410.4853429936971 C 237.0883672070954 411.82186139752145 235.63603018987035 412.63793593576725 234.07 412.64 Z" stroke-linecap="round" />
</g>
		<g transform="matrix(1 0 0 1 -25.83 161.01)" id="freepik--Character--inject-63"  >
<polygon style="stroke: none; stroke-width: 1; stroke-dasharray: none; stroke-linecap: butt; stroke-dashoffset: 0; stroke-linejoin: miter; stroke-miterlimit: 4; fill: rgb(38,50,56); fill-rule: nonzero; opacity: 1;" vector-effect="non-scaling-stroke"  points="17.39,5.23 -17.4,5.23 1.04,-5.23 16.49,-4.63 17.39,5.23 " />
</g>
		<g transform="matrix(0.95 -0.3 0.3 0.95 -19.19 100.33)" id="freepik--Character--inject-63"  >
<ellipse style="stroke: none; stroke-width: 1; stroke-dasharray: none; stroke-linecap: butt; stroke-dashoffset: 0; stroke-linejoin: miter; stroke-miterlimit: 4; fill: rgb(38,50,56); fill-rule: nonzero; opacity: 1;" vector-effect="non-scaling-stroke"  cx="0" cy="0" rx="30.04" ry="24.9" />
</g>
		<g transform="matrix(1 0 0 1 -61.5 55.13)" id="freepik--Character--inject-63"  >
<path style="stroke: none; stroke-width: 1; stroke-dasharray: none; stroke-linecap: butt; stroke-dashoffset: 0; stroke-linejoin: miter; stroke-miterlimit: 4; fill: rgb(67,185,178); fill-rule: nonzero; opacity: 1;" vector-effect="non-scaling-stroke"  transform=" translate(-188.5, -305.13)" d="M 151.65 334 C 149.5153083800747 333.99150213717184 147.68172998068502 332.4811864960654 147.26447883233467 330.3876531180051 C 146.8472276839843 328.2941197399449 147.9616772212896 326.19624812536046 149.93 325.37 C 151.50944400840393 324.7097611260737 152.64131915198863 323.28737136230234 152.93 321.6 C 153.11426493353733 319.592914313207 154.61615795666054 317.9559736885496 156.6 317.6 C 157.71368834624357 317.3727497900738 158.81510872438167 317.0890506017655 159.9 316.75 C 165.98000000000002 314.98 173.51 312.75 197.21 319.41 C 220.59 306.34000000000003 220.86 281.82000000000005 220.86 280.76000000000005 C 220.85994503022374 278.2863873705543 222.8564423397197 276.2764907502563 225.33 276.26000000000005 L 225.33 276.26000000000005 C 227.7942211748778 276.2599022120075 229.7980470293183 278.24587661117454 229.82000000000002 280.71000000000004 C 229.82000000000002 282.02000000000004 229.68000000000004 312.80000000000007 199.82000000000002 328.21000000000004 C 198.8022854224872 328.7377609056047 197.62015363423953 328.8523918668894 196.52 328.53000000000003 C 173.92000000000002 322.01000000000005 167.52 323.87 162.45000000000002 325.36 L 161.07000000000002 325.76 C 159.72154317745225 329.3317969118004 156.95654285784056 332.18727499056166 153.43000000000004 333.65 C 152.86649696641842 333.88602413306614 152.26091493505933 334.00509925159184 151.65 334 Z" stroke-linecap="round" />
</g>
		<g transform="matrix(1 0 0 1 15.22 23.67)" id="freepik--Character--inject-63"  >
<path style="stroke: none; stroke-width: 1; stroke-dasharray: none; stroke-linecap: butt; stroke-dashoffset: 0; stroke-linejoin: miter; stroke-miterlimit: 4; fill: rgb(67,185,178); fill-rule: nonzero; opacity: 1;" vector-effect="non-scaling-stroke"  transform=" translate(-265.22, -273.67)" d="M 204.08 301.89 C 195.57000000000002 268.07 172.9 180.82999999999998 245.55 175.5 C 310.73 170.71 328.61 257.5 332.96000000000004 287.5 C 335.1378284013574 302.67980610115177 336.32035301072506 317.98581672296916 336.4999999999999 333.3199999999998 C 336.6713015961769 349.3221253298889 325.4323328960023 363.1818400946781 309.74000000000007 366.32 C 274.2300000000001 373.54 240.63000000000005 374.56 217.99000000000007 365.63 C 211.88283817127538 363.16543263217653 208.12634205842016 356.97515030535874 208.76000000000008 350.42 C 209.63 340.74 209.65 324 204.08 301.89 Z" stroke-linecap="round" />
</g>
		<g transform="matrix(1 0 0 1 37.52 23.37)" id="freepik--Character--inject-63"  >
<path style="stroke: none; stroke-width: 1; stroke-dasharray: none; stroke-linecap: butt; stroke-dashoffset: 0; stroke-linejoin: miter; stroke-miterlimit: 4; fill: rgb(0,0,0); fill-rule: nonzero; opacity: 0.1;" vector-effect="non-scaling-stroke"  transform=" translate(-287.52, -273.37)" d="M 333 287.52 C 328.9 259.2 312.78 180.51999999999998 256.34000000000003 175.51999999999998 C 249.75659373322793 174.8526047099639 243.4176567907414 178.20944063905912 240.27000000000004 184.02999999999997 C 237.75000000000003 188.90999999999997 237.83000000000004 194.81999999999996 241.60000000000005 200.66999999999996 C 254 220 283.67 286.67 279.19 323 C 277.19 339.53 266.78 352.73 275.8 371.31 C 287.20177375921037 370.3118657121746 298.534774182111 368.6423017135151 309.7399999999999 366.31 C 325.43233289600226 363.17184009467815 336.6713015961768 349.3121253298889 336.5 333.31 C 336.3322981729645 317.9867096174965 335.16313901215074 302.69076733930825 332.99999999999994 287.51999999999987 Z" stroke-linecap="round" />
</g>
		<g transform="matrix(1 0 0 1 29.16 5.57)" id="freepik--Character--inject-63"  >
<path style="stroke: none; stroke-width: 1; stroke-dasharray: none; stroke-linecap: butt; stroke-dashoffset: 0; stroke-linejoin: miter; stroke-miterlimit: 4; fill: rgb(38,50,56); fill-rule: nonzero; opacity: 1;" vector-effect="non-scaling-stroke"  transform=" translate(-279.16, -255.57)" d="M 323.24 333.79 C 322.9953253013893 333.79006042080215 322.7954372082302 333.59461428526885 322.79 333.35 C 322.6198990776331 318.03568079118673 321.4406769166034 302.7492201428245 319.2600000000001 287.59000000000015 C 308.46000000000004 212.93000000000004 279.39000000000004 175.18000000000004 235.16000000000005 178.44000000000003 C 235.04058910942928 178.44822730374892 234.92282055932102 178.40854285805943 234.83274165801245 178.32972381941443 C 234.74266275670388 178.25090478076945 234.68769650742206 178.1394462769926 234.68000000000006 178.02000000000004 C 234.668343663163 177.77315972205037 234.8537968479388 177.56121322516373 235.10000000000005 177.54000000000005 C 279.85 174.24000000000004 309.27000000000004 212.26000000000005 320.1 287.46000000000004 C 322.2790450852565 302.6597947947949 323.46156923116587 317.9858421999709 323.64000000000004 333.33999999999975 C 323.64000000000004 333.5885281374239 323.43852813742393 333.79 323.19000000000005 333.79 Z" stroke-linecap="round" />
</g>
		<g transform="matrix(0.95 -0.3 0.3 0.95 65.13 102.71)" id="freepik--Character--inject-63"  >
<ellipse style="stroke: none; stroke-width: 1; stroke-dasharray: none; stroke-linecap: butt; stroke-dashoffset: 0; stroke-linejoin: miter; stroke-miterlimit: 4; fill: rgb(38,50,56); fill-rule: nonzero; opacity: 1;" vector-effect="non-scaling-stroke"  cx="0" cy="0" rx="30.04" ry="24.9" />
</g>
		<g transform="matrix(1 0 0 1 65.86 130.44)" id="freepik--Character--inject-63"  >
<path style="stroke: none; stroke-width: 1; stroke-dasharray: none; stroke-linecap: butt; stroke-dashoffset: 0; stroke-linejoin: miter; stroke-miterlimit: 4; fill: rgb(67,185,178); fill-rule: nonzero; opacity: 1;" vector-effect="non-scaling-stroke"  transform=" translate(-315.86, -380.44)" d="M 325.3 412.64 C 323.616553925391 412.6439161337229 322.0723580946826 411.70581716656756 321.3 410.21 C 317.3 402.45 312.23 393.34 303.14 383.47999999999996 C 302.08521996294775 382.3242210582293 301.70654615019214 380.70349713963515 302.14 379.2 C 305.52 367.49 310.81 351.48 310.87 351.32 C 311.6487214972614 348.97002838947 314.18502838946995 347.69627850273855 316.53499999999997 348.47499999999997 C 318.88497161053004 349.2537214972614 320.1587214972614 351.79002838946997 319.38 354.14 C 319.33 354.28999999999996 314.77 368.08 311.46 379.28999999999996 C 318.5170505707435 387.4259101614766 324.50246008969555 396.43259040335846 329.27 406.09000000000003 C 329.9834157330706 407.48409210877685 329.92075609726254 409.1488245898727 329.104561652179 410.4853429936971 C 328.2883672070954 411.82186139752145 326.83603018987037 412.63793593576725 325.27 412.64 Z" stroke-linecap="round" />
</g>
		<g transform="matrix(1 0 0 1 72.24 -20.76)" id="freepik--Character--inject-63"  >
<path style="stroke: none; stroke-width: 1; stroke-dasharray: none; stroke-linecap: butt; stroke-dashoffset: 0; stroke-linejoin: miter; stroke-miterlimit: 4; fill: rgb(38,50,56); fill-rule: nonzero; opacity: 1;" vector-effect="non-scaling-stroke"  transform=" translate(-322.24, -229.24)" d="M 315.88 275.91 C 313.8159295903851 275.9111834626813 312.0169408602959 274.5049878765477 311.51967384027193 272.5017121673084 C 311.022406820248 270.49843645806914 311.9549749673818 268.4141948385823 313.78 267.45000000000005 L 313.78 267.45000000000005 C 314.64 266.99000000000007 334.16999999999996 256.32000000000005 339.65 230.68000000000004 C 326.65 225.24000000000004 303.22999999999996 212.95000000000005 298.10999999999996 206.77000000000004 C 297.60606995725516 206.17242962263327 297.262001328413 205.45676687464166 297.10999999999996 204.69000000000003 C 296.51864052604725 200.9973871765639 296.86245394270554 197.21543959332277 298.10999999999996 193.69000000000003 L 295.74999999999994 189.13000000000002 C 294.6122934153485 186.92086100067684 295.4808610006768 184.20770658465145 297.68999999999994 183.07000000000002 C 299.8991389993231 181.9322934153486 302.6122934153485 182.80086100067683 303.74999999999994 185.01000000000002 L 307.13999999999993 191.57000000000002 C 307.88229450693285 192.96699343964895 307.82902273711784 194.6526644416529 307 196 C 306.0848233208939 197.82767950426964 305.6969879751291 199.87420351629646 305.88 201.91 C 311.65 207.12 334.88 219.45 346.31 223.68 C 348.3076698409472 224.42026129328633 349.5077170721975 226.4649410705735 349.18 228.57 C 344.11 261.34 319.04 274.84 317.98 275.4 C 317.33210351484826 275.7388138521615 316.61112886127944 275.91390769659967 315.88 275.91 Z" stroke-linecap="round" />
</g>
		<g transform="matrix(1 0 0 1 55.67 -49.29)" id="freepik--Character--inject-63"  >
<path style="stroke: none; stroke-width: 1; stroke-dasharray: none; stroke-linecap: butt; stroke-dashoffset: 0; stroke-linejoin: miter; stroke-miterlimit: 4; fill: rgb(38,50,56); fill-rule: nonzero; opacity: 1;" vector-effect="non-scaling-stroke"  transform=" translate(-305.67, -200.71)" d="M 301.57 206.15 C 300.74811937463693 206.1461597021965 299.9937249958026 205.6944898806785 299.60220574347625 204.9718453032463 C 299.21068649114983 204.24920072581412 299.2443442241145 203.37057471692373 299.69 202.68 C 299.85 202.44 303.55 196.85 309.19 195.34 C 310.3856964833837 195.01967484509814 311.61467484509814 195.7293035166163 311.935 196.92499999999998 C 312.25532515490187 198.12069648338365 311.5456964833837 199.34967484509815 310.35 199.67000000000002 C 306.42 200.73000000000002 303.47 205.09 303.45000000000005 205.13000000000002 C 303.0366139882832 205.76655260166913 302.3290039457776 206.15046868856047 301.57 206.15 Z" stroke-linecap="round" />
</g>
		<g transform="matrix(1 0 0 1 65.38 161.01)" id="freepik--Character--inject-63"  >
<polygon style="stroke: none; stroke-width: 1; stroke-dasharray: none; stroke-linecap: butt; stroke-dashoffset: 0; stroke-linejoin: miter; stroke-miterlimit: 4; fill: rgb(38,50,56); fill-rule: nonzero; opacity: 1;" vector-effect="non-scaling-stroke"  points="17.39,5.23 -17.39,5.23 1.05,-5.23 16.5,-4.63 17.39,5.23 " />
</g>
		<g transform="matrix(1 -0.09 0.09 1 8.02 10.81)" id="freepik--Character--inject-63"  >
<ellipse style="stroke: none; stroke-width: 1; stroke-dasharray: none; stroke-linecap: butt; stroke-dashoffset: 0; stroke-linejoin: miter; stroke-miterlimit: 4; fill: rgb(255,255,255); fill-rule: nonzero; opacity: 1;" vector-effect="non-scaling-stroke"  cx="0" cy="0" rx="23.92" ry="21.53" />
</g>
		<g transform="matrix(0.96 -0.27 0.27 0.96 2.17 12.94)" id="freepik--Character--inject-63"  >
<ellipse style="stroke: none; stroke-width: 1; stroke-dasharray: none; stroke-linecap: butt; stroke-dashoffset: 0; stroke-linejoin: miter; stroke-miterlimit: 4; fill: rgb(38,50,56); fill-rule: nonzero; opacity: 1;" vector-effect="non-scaling-stroke"  cx="0" cy="0" rx="6.57" ry="11.96" />
</g>
		<g transform="matrix(1 0 0 1 5.66 -0.68)" id="freepik--Character--inject-63"  >
<path style="stroke: none; stroke-width: 1; stroke-dasharray: none; stroke-linecap: butt; stroke-dashoffset: 0; stroke-linejoin: miter; stroke-miterlimit: 4; fill: rgb(38,50,56); fill-rule: nonzero; opacity: 1;" vector-effect="non-scaling-stroke"  transform=" translate(-255.66, -249.32)" d="M 230.8 264.86 C 245.9 262.92 275.8 254.39000000000001 280.73 250.95000000000002 C 276.85 239.59000000000003 258.73 229.87 242.61 235.35000000000002 C 228 240.28 230.8 264.86 230.8 264.86 Z" stroke-linecap="round" />
</g>
		<g transform="matrix(1 0 0 1 8.77 23.4)" id="freepik--Character--inject-63"  >
<path style="stroke: none; stroke-width: 1; stroke-dasharray: none; stroke-linecap: butt; stroke-dashoffset: 0; stroke-linejoin: miter; stroke-miterlimit: 4; fill: rgb(38,50,56); fill-rule: nonzero; opacity: 1;" vector-effect="non-scaling-stroke"  transform=" translate(-258.77, -273.4)" d="M 233.73 272.16 C 252.48 268.6 276.84999999999997 262.62 283.82 258.79 C 283.39 271.01000000000005 279.82 283.40000000000003 260.7 287.59000000000003 C 245.06 291 233.73 272.16 233.73 272.16 Z" stroke-linecap="round" />
</g>
		<g transform="matrix(0.83 -0.55 0.55 0.83 -41.99 18.37)" id="freepik--Character--inject-63"  >
<ellipse style="stroke: none; stroke-width: 1; stroke-dasharray: none; stroke-linecap: butt; stroke-dashoffset: 0; stroke-linejoin: miter; stroke-miterlimit: 4; fill: rgb(255,255,255); fill-rule: nonzero; opacity: 1;" vector-effect="non-scaling-stroke"  cx="0" cy="0" rx="14.72" ry="18.63" />
</g>
		<g transform="matrix(1 0 0 1 -45.92 18.97)" id="freepik--Character--inject-63"  >
<path style="stroke: none; stroke-width: 1; stroke-dasharray: none; stroke-linecap: butt; stroke-dashoffset: 0; stroke-linejoin: miter; stroke-miterlimit: 4; fill: rgb(38,50,56); fill-rule: nonzero; opacity: 1;" vector-effect="non-scaling-stroke"  transform=" translate(-204.08, -268.97)" d="M 208.34 268.68 C 209.47 274.04 208.49 278.51 206.14000000000001 278.68 C 203.79000000000002 278.85 200.97000000000003 274.62 199.83 269.26 C 198.69 263.9 199.68 259.44 202.02 259.26 C 204.36 259.08 207.2 263.32 208.34 268.68 Z" stroke-linecap="round" />
</g>
		<g transform="matrix(1 0 0 1 -43.5 6.18)" id="freepik--Character--inject-63"  >
<path style="stroke: none; stroke-width: 1; stroke-dasharray: none; stroke-linecap: butt; stroke-dashoffset: 0; stroke-linejoin: miter; stroke-miterlimit: 4; fill: rgb(38,50,56); fill-rule: nonzero; opacity: 1;" vector-effect="non-scaling-stroke"  transform=" translate(-206.5, -256.18)" d="M 189.75 266.63 C 199.88 267.82 220 266.49 223.34 264.63 C 220.87 255 208.89 244 198 245.4 C 188.18 246.66 189.75 266.63 189.75 266.63 Z" stroke-linecap="round" />
</g>
		<g transform="matrix(1 0 0 1 -41.53 30.73)" id="freepik--Character--inject-63"  >
<path style="stroke: none; stroke-width: 1; stroke-dasharray: none; stroke-linecap: butt; stroke-dashoffset: 0; stroke-linejoin: miter; stroke-miterlimit: 4; fill: rgb(38,50,56); fill-rule: nonzero; opacity: 1;" vector-effect="non-scaling-stroke"  transform=" translate(-208.47, -280.73)" d="M 191.63 272.94 C 204.22 273.51 220.63 273.19 225.31 271.42 C 224.88 281.03000000000003 222.36 290.19 209.5 290.04 C 199 289.92 191.63 272.94 191.63 272.94 Z" stroke-linecap="round" />
</g>
		<g transform="matrix(1 0 0 1 4.4 -29.63)" id="freepik--Character--inject-63"  >
<path style="stroke: none; stroke-width: 1; stroke-dasharray: none; stroke-linecap: butt; stroke-dashoffset: 0; stroke-linejoin: miter; stroke-miterlimit: 4; fill: rgb(38,50,56); fill-rule: nonzero; opacity: 1;" vector-effect="non-scaling-stroke"  transform=" translate(-254.4, -220.37)" d="M 264.09 229.3 C 252.64711576206327 229.3625494295363 241.45560901419142 225.94476301229903 232 219.5 C 230.0255820193549 218.0060697517077 229.6360697517077 215.19441798064508 231.13 213.22 C 232.62393024829228 211.2455820193549 235.4355820193549 210.8560697517077 237.41 212.35 C 247.9931692426831 219.25216115134378 260.8334660422201 221.7994410130823 273.25 219.45999999999998 C 275.68281432300466 218.99884223389128 278.0288422338913 220.59718567699537 278.49 223.03 C 278.95115776610874 225.46281432300464 277.3528143230047 227.80884223389128 274.92 228.27 C 271.34990341132936 228.94949922403038 267.72418170623257 229.29432778878103 264.09 229.3 Z" stroke-linecap="round" />
</g>
		<g transform="matrix(1 0 0 1 -53.21 -38.3)" id="freepik--Character--inject-63"  >
<path style="stroke: none; stroke-width: 1; stroke-dasharray: none; stroke-linecap: butt; stroke-dashoffset: 0; stroke-linejoin: miter; stroke-miterlimit: 4; fill: rgb(38,50,56); fill-rule: nonzero; opacity: 1;" vector-effect="non-scaling-stroke"  transform=" translate(-196.79, -211.7)" d="M 183.88 221.57 C 182.42314419377553 221.56267658941758 181.05997650777906 220.85051411827246 180.22185020936112 219.65886535274933 C 179.3837239109432 218.4672165872262 179.17435685557237 216.94354767254106 179.66 215.57 C 182.03 208.95 185.98 204.66 191.38 202.79999999999998 C 201.16 199.42999999999998 211.7 205.98 212.15 206.26 C 214.19324927042356 207.6026317669837 214.7867044889267 210.33326545022302 213.4850415410318 212.40285507449104 C 212.18337859313692 214.47244469875906 209.46510863497215 215.12017754719935 207.37 213.85999999999999 C 205.37 212.58999999999997 199 209.64999999999998 194.27 211.29 C 191.55 212.23999999999998 189.53 214.63 188.10000000000002 218.60999999999999 C 187.4561968808451 220.38625701191273 185.7693308706353 221.56946160675184 183.88 221.57 Z" stroke-linecap="round" />
</g>
		<g transform="matrix(1 0 0 1 -17.71 43.11)" id="freepik--Character--inject-63"  >
<path style="stroke: none; stroke-width: 1; stroke-dasharray: none; stroke-linecap: butt; stroke-dashoffset: 0; stroke-linejoin: miter; stroke-miterlimit: 4; fill: rgb(38,50,56); fill-rule: nonzero; opacity: 1;" vector-effect="non-scaling-stroke"  transform=" translate(-232.29, -293.11)" d="M 219.23 297.25 C 219.10427145447014 297.2496716835942 218.97938926951988 297.2294205184671 218.85999999999999 297.19 C 218.1532005914462 296.9910186229633 217.74137826173634 296.2569005569587 217.94 295.55 C 218.74281222464245 293.36497862212616 220.3841171520333 291.59049763703035 222.5 290.62 C 227.64 287.97 235.5 288.52 245.81 292.25 C 246.14681058237164 292.37159279356973 246.42094275753738 292.62293427128253 246.57124020688116 292.9479525054885 C 246.72153765622497 293.2729707396945 246.7354955453388 293.64462402598616 246.61 293.98 C 246.49055198930074 294.3160919745706 246.2411115899846 294.5901203424644 245.91769592286047 294.74054623415003 C 245.59428025573635 294.8909721258357 245.22399660460857 294.9051875023344 244.89000000000001 294.78000000000003 C 233.06 290.50000000000006 226.89000000000001 291.42 223.89000000000001 292.96000000000004 C 222.39204585976694 293.5954988773531 221.20099088821576 294.7901413638789 220.57000000000002 296.29 C 220.39321842082 296.8772067448928 219.84286346734265 297.2714908906676 219.23 297.25 Z" stroke-linecap="round" />
</g>
		<g transform="matrix(1 0 0 1 -74.33 78.44)" id="freepik--Character--inject-63"  >
<path style="stroke: none; stroke-width: 1; stroke-dasharray: none; stroke-linecap: butt; stroke-dashoffset: 0; stroke-linejoin: miter; stroke-miterlimit: 4; fill: rgb(67,185,178); fill-rule: nonzero; opacity: 1;" vector-effect="non-scaling-stroke"  transform=" translate(-175.67, -328.44)" d="M 176.88 292.32 C 161.23275922090806 293.71033286703323 146.01454592714992 298.1792811656692 132.1 305.4699999999999 C 139.82 304.01 167.45 338.2 174.55 364.55999999999995 C 187.66000000000003 359.7099999999999 202.94 356.3999999999999 219.23000000000002 353.80999999999995 C 209.36 326.64 191.31 295.85 176.88 292.32 Z" stroke-linecap="round" />
</g>
		<g transform="matrix(1 0 0 1 -74.33 78.44)" id="freepik--Character--inject-63"  >
<path style="stroke: none; stroke-width: 1; stroke-dasharray: none; stroke-linecap: butt; stroke-dashoffset: 0; stroke-linejoin: miter; stroke-miterlimit: 4; fill: rgb(255,255,255); fill-rule: nonzero; opacity: 0.6;" vector-effect="non-scaling-stroke"  transform=" translate(-175.67, -328.44)" d="M 176.88 292.32 C 161.23275922090806 293.71033286703323 146.01454592714992 298.1792811656692 132.1 305.4699999999999 C 139.82 304.01 167.45 338.2 174.55 364.55999999999995 C 187.66000000000003 359.7099999999999 202.94 356.3999999999999 219.23000000000002 353.80999999999995 C 209.36 326.64 191.31 295.85 176.88 292.32 Z" stroke-linecap="round" />
</g>
		<g transform="matrix(1 0 0 1 -97.17 54.16)" id="freepik--Character--inject-63"  >
<path style="stroke: none; stroke-width: 1; stroke-dasharray: none; stroke-linecap: butt; stroke-dashoffset: 0; stroke-linejoin: miter; stroke-miterlimit: 4; fill: rgb(67,185,178); fill-rule: nonzero; opacity: 1;" vector-effect="non-scaling-stroke"  transform=" translate(-152.83, -304.16)" d="M 176.88 292.32 C 159.8 290.39 132.07 304.69 132.07 304.69 C 127.16 307.82 128.48999999999998 313.69 131.17 316.18 C 133.73999999999998 312.49 162.39999999999998 302.89 173.17 301.6 C 167.82 296.64 172.8 293 176.88 292.32 Z" stroke-linecap="round" />
</g>
		<g transform="matrix(1 0 0 1 -97.17 54.16)" id="freepik--Character--inject-63"  >
<path style="stroke: none; stroke-width: 1; stroke-dasharray: none; stroke-linecap: butt; stroke-dashoffset: 0; stroke-linejoin: miter; stroke-miterlimit: 4; fill: rgb(255,255,255); fill-rule: nonzero; opacity: 0.2;" vector-effect="non-scaling-stroke"  transform=" translate(-152.83, -304.16)" d="M 176.88 292.32 C 159.8 290.39 132.07 304.69 132.07 304.69 C 127.16 307.82 128.48999999999998 313.69 131.17 316.18 C 133.73999999999998 312.49 162.39999999999998 302.89 173.17 301.6 C 167.82 296.64 172.8 293 176.88 292.32 Z" stroke-linecap="round" />
</g>
		<g transform="matrix(1 0 0 1 -98.89 74.45)" id="freepik--Character--inject-63"  >
<path style="stroke: none; stroke-width: 1; stroke-dasharray: none; stroke-linecap: butt; stroke-dashoffset: 0; stroke-linejoin: miter; stroke-miterlimit: 4; fill: rgb(38,50,56); fill-rule: nonzero; opacity: 1;" vector-effect="non-scaling-stroke"  transform=" translate(-151.11, -324.45)" d="M 151.66 334 C 150.14790651223666 334.0059026505331 148.73302047511044 333.2552999783176 147.89 332 C 144.64 327 146.67 319.41 147.10999999999999 317.93 C 147.88879010228416 315.64878190908166 150.32990513827764 314.38954135513404 152.64021089405497 315.07726027778403 C 154.9505166498323 315.764979200434 156.30556593952704 318.15424076295864 155.70999999999998 320.49 C 154.98 323 154.82999999999998 326.21000000000004 155.40999999999997 327.09000000000003 C 156.76178974806294 329.1668349750243 156.17549289842808 331.9461505752017 154.09999999999997 333.3 C 153.37359357675282 333.7690681187542 152.5245991103913 334.0126321050055 151.66 334 Z" stroke-linecap="round" />
</g>
		<g transform="matrix(1 0 0 1 -115.75 -121.68)" id="freepik--error-400--inject-63"  >
<path style="stroke: none; stroke-width: 1; stroke-dasharray: none; stroke-linecap: butt; stroke-dashoffset: 0; stroke-linejoin: miter; stroke-miterlimit: 4; fill: rgb(67,185,178); fill-rule: nonzero; opacity: 1;" vector-effect="non-scaling-stroke"  transform=" translate(-134.25, -128.32)" d="M 136.33 137.94 L 121.19 137.94 L 121.19 131.10999999999999 L 136.32999999999998 113.10999999999999 L 143.57 113.10999999999999 L 143.57 131.5 L 147.32 131.5 L 147.32 137.94 L 143.57 137.94 L 143.57 143.53 L 136.32999999999998 143.53 Z M 136.33 131.5 L 136.33 122.09 L 128.33 131.5 Z" stroke-linecap="round" />
</g>
		<g transform="matrix(1 0 0 1 -87.86 -121.44)" id="freepik--error-400--inject-63"  >
<path style="stroke: none; stroke-width: 1; stroke-dasharray: none; stroke-linecap: butt; stroke-dashoffset: 0; stroke-linejoin: miter; stroke-miterlimit: 4; fill: rgb(67,185,178); fill-rule: nonzero; opacity: 1;" vector-effect="non-scaling-stroke"  transform=" translate(-162.14, -128.56)" d="M 149.91 128.46 Q 149.91 119.94000000000001 152.98 116.53 Q 156.04999999999998 113.11999999999999 162.32999999999998 113.12 C 164.02847554063808 113.06268805911357 165.7230892335376 113.3168801130485 167.32999999999998 113.87 C 168.50336949798722 114.2922714153564 169.57852250231574 114.9489313198988 170.48999999999998 115.80000000000001 C 171.2559339427278 116.53481588489441 171.90659310792265 117.38100992874885 172.42 118.31 C 172.92175149540108 119.28285164181118 173.30129715779717 120.31400667150675 173.54999999999998 121.38000000000001 C 174.11455954711272 123.67012588735372 174.39334764757254 126.02135083099074 174.38 128.38 Q 174.38 136.51 171.63 140.29 Q 168.88 144.07 162.11 144 C 160.01044831223794 144.08713681649064 157.92009782348842 143.67592032690058 156.01000000000002 142.8 C 154.4456443476297 141.98363920716196 153.1270768655667 140.76517239782103 152.19000000000003 139.27 C 151.35906046289955 137.8783834107965 150.7896900198809 136.34650579029397 150.51000000000002 134.75 C 150.09587294638257 132.6793026480699 149.8948248348653 130.5716482789971 149.91 128.46 Z M 158.15 128.46 Q 158.15 134.18 159.15 136.26000000000002 C 159.59817634686573 137.4973022474804 160.76419628153675 138.32903660361092 162.08 138.35000000000002 C 162.90104250463074 138.3655713713855 163.6925772397898 138.04389743791904 164.27 137.46000000000004 C 164.9863868076412 136.6790596427138 165.4590746544132 135.70587878171264 165.63000000000002 134.66000000000003 C 165.98558447418577 132.68082692096488 166.13305440904415 130.66987326380539 166.07000000000002 128.66000000000003 C 166.07000000000002 124.66000000000003 165.74 122.02000000000002 165.07000000000002 120.66000000000003 C 164.5719788230443 119.4434768237802 163.38449107687822 118.65181832633615 162.07000000000002 118.66000000000003 C 160.71992954634453 118.62357702364417 159.50361788218106 119.47094081634472 159.07000000000002 120.75000000000003 Q 158.16 122.82 158.15 128.48 Z" stroke-linecap="round" />
</g>
		<g transform="matrix(1 0 0 1 -59.99 -121.44)" id="freepik--error-400--inject-63"  >
<path style="stroke: none; stroke-width: 1; stroke-dasharray: none; stroke-linecap: butt; stroke-dashoffset: 0; stroke-linejoin: miter; stroke-miterlimit: 4; fill: rgb(67,185,178); fill-rule: nonzero; opacity: 1;" vector-effect="non-scaling-stroke"  transform=" translate(-190.01, -128.56)" d="M 177.77 128.46 Q 177.77 119.94000000000001 180.84 116.53 Q 183.91 113.11999999999999 190.19 113.12 C 191.8884755406381 113.06268805911357 193.5830892335376 113.3168801130485 195.19 113.87 C 196.36336949798724 114.2922714153564 197.43852250231575 114.9489313198988 198.35 115.80000000000001 C 199.11897253049122 116.53208686696951 199.77001109637908 117.37877432830554 200.28 118.31000000000002 C 200.7817514954011 119.28285164181118 201.16129715779718 120.31400667150675 201.41 121.38000000000001 C 201.97792866427568 123.66970419548896 202.26007638465376 126.02093519863949 202.25 128.38 Q 202.25 136.51 199.49 140.29 Q 196.73000000000002 144.07 190 144 C 187.90044831223793 144.08713681649064 185.8100978234884 143.67592032690058 183.9 142.8 C 182.3364853182084 141.98620120162767 181.02054764176583 140.7669728557373 180.09 139.27 C 179.25120926022464 137.88118787273504 178.67812492463312 136.3484416023956 178.4 134.75 C 177.9757999658334 132.68034151097277 177.76469842623376 130.57267693306503 177.77 128.46 Z M 186.01000000000002 128.46 Q 186.01000000000002 134.18 187.01000000000002 136.26000000000002 C 187.45817634686574 137.4973022474804 188.62419628153677 138.32903660361092 189.94000000000003 138.35000000000002 C 190.76104250463075 138.3655713713855 191.55257723978983 138.04389743791904 192.13000000000002 137.46000000000004 C 192.84618664410334 136.6776693291858 193.32182091726435 135.70557008476914 193.50000000000003 134.66000000000003 C 193.85040582298325 132.68017705727226 193.99783635566686 130.66976070249547 193.94000000000003 128.66000000000003 Q 193.94000000000003 122.66000000000003 192.94000000000003 120.66000000000003 C 192.43755497938955 119.44710366279878 191.2528447038052 118.65729681240924 189.94000000000003 118.66000000000003 C 188.590902838466 118.62682255824876 187.37632513393444 119.47297835907243 186.94000000000003 120.75000000000003 Q 186 122.82 186 128.48 Z" stroke-linecap="round" />
</g>
		<g transform="matrix(1 0 0 1 -16.51 -121.42)" id="freepik--error-400--inject-63"  >
<path style="stroke: none; stroke-width: 1; stroke-dasharray: none; stroke-linecap: butt; stroke-dashoffset: 0; stroke-linejoin: miter; stroke-miterlimit: 4; fill: rgb(38,50,56); fill-rule: nonzero; opacity: 1;" vector-effect="non-scaling-stroke"  transform=" translate(-233.5, -128.57)" d="M 220.89 113.63 L 245.64999999999998 113.63 L 245.64999999999998 120 L 230.14999999999998 120 L 230.14999999999998 124.76 L 244.52999999999997 124.76 L 244.52999999999997 130.86 L 230.15 130.86 L 230.15 136.75 L 246.1 136.75 L 246.1 143.52 L 220.89 143.52 Z" stroke-linecap="round" />
</g>
		<g transform="matrix(1 0 0 1 15.9 -121.43)" id="freepik--error-400--inject-63"  >
<path style="stroke: none; stroke-width: 1; stroke-dasharray: none; stroke-linecap: butt; stroke-dashoffset: 0; stroke-linejoin: miter; stroke-miterlimit: 4; fill: rgb(38,50,56); fill-rule: nonzero; opacity: 1;" vector-effect="non-scaling-stroke"  transform=" translate(-265.9, -128.57)" d="M 251.2 143.53 L 251.2 113.63 L 266.59999999999997 113.63 C 268.8078960653461 113.55187189136929 271.01518688856726 113.80124520574847 273.15 114.36999999999999 C 274.6389546202298 114.83839660485417 275.92546274284956 115.79710950718997 276.79999999999995 117.08999999999999 C 278.1374393625285 119.00959543831505 278.61699014779845 121.39866492898794 278.1239332431932 123.68569041727217 C 277.630876338588 125.97271590555641 276.2095620255024 127.95198031698183 274.19999999999993 129.14999999999998 C 273.1874436617861 129.71053350374405 272.09465307499426 130.11189794765832 270.9599999999999 130.33999999999997 C 271.8107098396178 130.58403764596324 272.6197921748998 130.95486704963417 273.3599999999999 131.43999999999997 C 273.91450601464203 131.90209129302715 274.411409198991 132.4292115629109 274.8399999999999 133.00999999999996 C 275.33416938634184 133.58517922211865 275.769663552102 134.2082708746678 276.13999999999993 134.86999999999998 L 280.60999999999996 143.52999999999997 L 270.17 143.52999999999997 L 265.23 134.39 C 264.8405246846296 133.51485461317964 264.27157585194533 132.73127238852464 263.56 132.08999999999997 C 262.896437884777 131.6312222281922 262.1066558109084 131.39009407289606 261.3 131.39999999999998 L 260.48 131.39999999999998 L 260.48 143.52999999999997 Z M 260.47999999999996 125.75 L 264.37999999999994 125.75 C 265.20373827343235 125.68478896693293 266.02018752700974 125.54759872350395 266.81999999999994 125.34 C 267.4193195625843 125.2236526255579 267.95396417977975 124.88860866544873 268.31999999999994 124.4 C 269.24942347411366 123.17856195088287 269.1070320642103 121.45260546720542 267.98999999999995 120.4 C 266.95222289010786 119.78027110487959 265.7427997200418 119.51034187561847 264.53999999999996 119.63000000000001 L 260.47999999999996 119.63000000000001 Z" stroke-linecap="round" />
</g>
		<g transform="matrix(1 0 0 1 48.39 -121.43)" id="freepik--error-400--inject-63"  >
<path style="stroke: none; stroke-width: 1; stroke-dasharray: none; stroke-linecap: butt; stroke-dashoffset: 0; stroke-linejoin: miter; stroke-miterlimit: 4; fill: rgb(38,50,56); fill-rule: nonzero; opacity: 1;" vector-effect="non-scaling-stroke"  transform=" translate(-298.39, -128.57)" d="M 283.69 143.53 L 283.69 113.63 L 299.09 113.63 C 301.29792450592373 113.55113317718754 303.5053239768008 113.80051876626374 305.64 114.36999999999999 C 307.1289546202298 114.83839660485417 308.41546274284957 115.79710950718997 309.28999999999996 117.08999999999999 C 310.62234617519704 119.01016419797956 311.0999183995 121.3963921397491 310.6091865570443 123.6814214911065 C 310.1184547145886 125.96645084246393 308.7032500876967 127.94618690657221 306.7 129.14999999999998 C 305.68460049602044 129.71207760015096 304.58827327570555 130.1135020285124 303.45 130.33999999999997 C 305.04463093038936 130.68396465168973 306.4390180518637 131.64350424301358 307.33 133.00999999999996 C 307.8241693863419 133.58517922211865 308.25966355210204 134.2082708746678 308.63 134.86999999999998 L 313.1 143.52999999999997 L 302.66 143.52999999999997 L 297.72 134.39 C 297.3305246846296 133.51485461317964 296.76157585194534 132.73127238852464 296.05 132.08999999999997 C 295.386437884777 131.6312222281922 294.59665581090843 131.39009407289606 293.79 131.39999999999998 L 293 131.39999999999998 L 293 143.52999999999997 Z M 293 125.75 L 296.9 125.75 C 297.7237382734324 125.68478896693293 298.5401875270098 125.54759872350395 299.34 125.34 C 299.9411384636471 125.22829025912488 300.4773445666341 124.89226776791969 300.84 124.4 C 301.7694234741137 123.17856195088287 301.6270320642103 121.45260546720542 300.51 120.4 C 299.4732927858478 119.77758894614516 298.2629718006872 119.50745933496438 297.06 119.63000000000001 L 293 119.63000000000001 Z" stroke-linecap="round" />
</g>
		<g transform="matrix(1 0 0 1 79.66 -121.43)" id="freepik--error-400--inject-63"  >
<path style="stroke: none; stroke-width: 1; stroke-dasharray: none; stroke-linecap: butt; stroke-dashoffset: 0; stroke-linejoin: miter; stroke-miterlimit: 4; fill: rgb(38,50,56); fill-rule: nonzero; opacity: 1;" vector-effect="non-scaling-stroke"  transform=" translate(-329.66, -128.57)" d="M 314.18 128.6 Q 314.18 121.28 318.26 117.19999999999999 Q 322.34 113.11999999999998 329.62 113.11999999999999 Q 337.09000000000003 113.11999999999999 341.13 117.11999999999999 Q 345.16999999999996 121.11999999999999 345.13 128.35 C 345.26648299853764 131.3312030490908 344.67260086368503 134.30061372335373 343.4 137 C 342.2566999482802 139.21082912982817 340.4813573310363 141.03142557849196 338.29999999999995 142.23 C 335.72951020112174 143.51805217737933 332.87232954837384 144.12735455754367 330 144 C 327.1245590728311 144.09789937786053 324.26393194360264 143.54764732552385 321.63 142.39 C 319.36583358128274 141.2679441978853 317.4913547256622 139.4910218626316 316.25 137.29 C 314.79490716165236 134.6307180916883 314.080050281521 131.62970056108858 314.18 128.6 Z M 323.42 128.6 Q 323.42 133.13 325.11 135.10999999999999 C 326.30801249630866 136.36316725627802 327.9663154515544 137.07201640841717 329.70000000000005 137.07201640841717 C 331.4336845484456 137.07201640841717 333.09198750369137 136.36316725627802 334.29 135.10999999999999 Q 335.92 133.17 335.93 128.10999999999999 Q 335.93 123.89999999999999 334.22 121.93999999999998 C 333.0506102249183 120.63075920202851 331.35353411685026 119.91813416963632 329.6 119.99999999999999 C 327.87826289036605 119.94071402538589 326.225365900923 120.67861446710153 325.12 121.99999999999999 C 324 123.41 323.42 125.6 323.42 128.64 Z" stroke-linecap="round" />
</g>
		<g transform="matrix(1 0 0 1 114.97 -121.43)" id="freepik--error-400--inject-63"  >
<path style="stroke: none; stroke-width: 1; stroke-dasharray: none; stroke-linecap: butt; stroke-dashoffset: 0; stroke-linejoin: miter; stroke-miterlimit: 4; fill: rgb(38,50,56); fill-rule: nonzero; opacity: 1;" vector-effect="non-scaling-stroke"  transform=" translate(-364.97, -128.57)" d="M 350.27 143.53 L 350.27 113.63 L 365.65999999999997 113.63 C 367.8679245059237 113.55113317718754 370.0753239768008 113.80051876626374 372.21 114.36999999999999 C 373.70041779375936 114.83553102891607 374.98779038737854 115.79488813977748 375.85999999999996 117.08999999999999 C 376.819502697989 118.51761267341058 377.3057722978011 120.2108104166414 377.24999999999994 121.92999999999999 C 377.29064381729995 123.43266880819041 376.9243968289463 124.91838772320986 376.18999999999994 126.22999999999999 C 375.47994302003383 127.4351327950847 374.4751327950846 128.43994302003387 373.2699999999999 129.14999999999998 C 372.2574436617861 129.71053350374405 371.16465307499425 130.11189794765832 370.0299999999999 130.33999999999997 C 370.8807098396178 130.58403764596324 371.6897921748998 130.95486704963417 372.4299999999999 131.43999999999997 C 372.9822035583256 131.90453336420217 373.4788356124502 132.43136601621276 373.9099999999999 133.00999999999996 C 374.4017639144459 133.58480335115559 374.8339746251462 134.20799088751423 375.19999999999993 134.86999999999998 L 379.67999999999995 143.52999999999997 L 369.24 143.52999999999997 L 364.3 134.39 C 363.9064808530992 133.51719463660797 363.33809888267757 132.73439312045846 362.63 132.08999999999997 C 361.9627728369164 131.63104091710304 361.16977495459093 131.38999750793803 360.36 131.39999999999998 L 359.55 131.39999999999998 L 359.55 143.52999999999997 Z M 359.54999999999995 125.75 L 363.43999999999994 125.75 C 364.26705677121083 125.68501187560123 365.086846146587 125.54782263319134 365.88999999999993 125.34 C 366.4893195625843 125.2236526255579 367.02396417977974 124.88860866544873 367.38999999999993 124.4 C 367.77530306248156 123.90653216169675 367.9799919885787 123.29599450282063 367.9699999999999 122.67 C 368.0201077628886 121.82515326190553 367.68123482537567 121.00375472858627 367.0499999999999 120.44 C 366.0132927858477 119.81758894614515 364.8029718006871 119.54745933496437 363.5999999999999 119.67 L 359.5499999999999 119.67 Z" stroke-linecap="round" />
</g>
		<g transform="matrix(1 0 0 1 -79.3 -164.13)" id="freepik--bad-request--inject-63"  >
<path style="stroke: none; stroke-width: 1; stroke-dasharray: none; stroke-linecap: butt; stroke-dashoffset: 0; stroke-linejoin: miter; stroke-miterlimit: 4; fill: rgb(38,50,56); fill-rule: nonzero; opacity: 1;" vector-effect="non-scaling-stroke"  transform=" translate(-170.7, -85.87)" d="M 162.29 97 L 162.29 74.74 L 170.64999999999998 74.74 C 172.04533210232478 74.68708995438908 173.43685311427367 74.91844308107007 174.73999999999998 75.42 C 175.74365108154709 75.84430395064085 176.58971099435726 76.57149594181652 177.15999999999997 77.5 C 177.7248303302685 78.37735096431982 178.02991272087198 79.39660349656327 178.03999999999996 80.44 C 178.0415763491828 81.39266432464262 177.77095775911903 82.32595151345235 177.25999999999996 83.13 C 176.6817375021004 84.00180777587305 175.8712226058584 84.69455555043885 174.91999999999996 85.13 C 176.1465100676542 85.44087808081468 177.23829930441727 86.14299334561407 178.02999999999997 87.13 C 178.75621783699793 88.10121608009864 179.13641849813337 89.28758295790081 179.10999999999999 90.5 C 179.11936891889547 91.50813496950313 178.89337790872148 92.50454987799762 178.45 93.41 C 178.07938350531924 94.22283406499571 177.5206602881236 94.93580602313496 176.82 95.49 C 176.0878386979329 96.01515568538555 175.25834553459646 96.38910752131592 174.38 96.58999999999999 C 173.20294079487977 96.85952131669563 171.99728811257293 96.98378078534563 170.79 96.96 Z M 165.29 84.08 L 170.10999999999999 84.08 C 171.05411703552397 84.12090988523812 171.99941752096518 84.03344435989482 172.92 83.82 C 173.58955930882507 83.65050010044938 174.18394992627182 83.2636186334722 174.60999999999999 82.72 C 175.005447222206 82.14853925034416 175.205403404918 81.46447862527671 175.17999999999998 80.77 C 175.20767781327504 80.06529251629318 175.02303287178157 79.3685191521668 174.64999999999998 78.77 C 174.30462223432804 78.20830254436771 173.76292953387906 77.79490548349877 173.12999999999997 77.61 C 172.0191671655855 77.35415879040322 170.87881172531692 77.24987849940521 169.73999999999998 77.3 L 165.29 77.3 Z M 165.29 94.37 L 170.84 94.37 C 171.508246188944 94.38813873296661 172.1768960596758 94.35470623943003 172.84 94.27000000000001 C 173.44028177919043 94.17654473800863 174.01724603623626 93.96951638695101 174.54 93.66000000000001 C 175.01869521969587 93.35268237696408 175.40834391081145 92.9251032822886 175.67 92.42000000000002 C 175.97111946216168 91.8398204431269 176.12237415244067 91.19355040284391 176.10999999999999 90.54000000000002 C 176.12975761746856 89.77052835985643 175.90575102668174 89.01450611595094 175.47 88.38000000000002 C 175.04702561749176 87.7581604426663 174.42148369721664 87.30225700924545 173.7 87.09000000000002 C 172.63888891129162 86.7987595850422 171.53964881333522 86.67062730368532 170.44 86.71000000000002 L 165.29 86.71000000000002 Z" stroke-linecap="round" />
</g>
		<g transform="matrix(1 0 0 1 -60.67 -161.06)" id="freepik--bad-request--inject-63"  >
<path style="stroke: none; stroke-width: 1; stroke-dasharray: none; stroke-linecap: butt; stroke-dashoffset: 0; stroke-linejoin: miter; stroke-miterlimit: 4; fill: rgb(38,50,56); fill-rule: nonzero; opacity: 1;" vector-effect="non-scaling-stroke"  transform=" translate(-189.33, -88.94)" d="M 193.36 95 C 192.49173282021354 95.76847526238537 191.5015130111222 96.38694019434342 190.43 96.83 C 189.46973441430774 97.18462422017491 188.4536460567796 97.36413316333821 187.43 97.36 C 185.9543344946771 97.45989280665094 184.49586181970605 96.99518337590037 183.35 96.06 C 182.40530143330153 95.21963262442132 181.88161601264676 94.00380353590819 181.92 92.74000000000001 C 181.9048058713689 91.25076933259572 182.62741355591714 89.85048293870432 183.85 89 C 184.4604003735711 88.58802648425457 185.13684369056645 88.28362699160667 185.85 88.1 C 186.65051902160994 87.91210500201788 187.4621476871149 87.77516353993681 188.28 87.69 C 189.93377572501612 87.5390023152768 191.56846572378637 87.22412350403826 193.16 86.75 C 193.16 86.37 193.16 86.14 193.16 86.03 C 193.2531422908876 85.17239298958361 192.972600321787 84.31619347349746 192.39 83.68 C 191.49899753466497 82.9983494346198 190.38880038562013 82.66742528442373 189.26999999999998 82.75 C 188.27272060587578 82.67873685819877 187.27767381673743 82.91615153069495 186.42 83.43 C 185.68197791439437 84.04896326094918 185.18036859708437 84.9038185763648 185 85.85 L 182.33 85.49 C 182.50880249439294 84.48275371852219 182.91964643947915 83.53096524573914 183.53 82.71 C 184.18317651915146 81.94684014984675 185.03978272178188 81.385017458243 186 81.09 C 187.18143257047512 80.69028506020025 188.42298488658244 80.49745540892474 189.67 80.52000000000001 C 190.79935922778245 80.48704435291707 191.92592346149664 80.6494319902092 193 81 C 193.7289564060222 81.23897735351683 194.38355918924697 81.6627465237097 194.9 82.23 C 195.32811382762725 82.7730350681511 195.61961418237365 83.41090643265494 195.75 84.09 C 195.86558210531265 84.9247502680709 195.9124061857398 85.76758371575951 195.89 86.61 L 195.89 90.26 C 195.8452425297427 91.86864300522645 195.90202197993747 93.47850741663134 196.05999999999997 95.08000000000003 C 196.1797118390834 95.76075045524121 196.41295906602235 96.41654700634489 196.74999999999997 97.02000000000001 L 193.9 97.02000000000001 C 193.59932282104452 96.38486344346818 193.41636052518376 95.70044892932229 193.36 95 Z M 193.13000000000002 88.89 C 191.68321362828175 89.3934196990849 190.18337981462983 89.72895299072962 188.66000000000003 89.89 C 187.84515257298443 89.97709726426231 187.0431392202562 90.15830530211724 186.27000000000004 90.43 C 185.83261296875068 90.61780093382832 185.45793080469147 90.92656679124748 185.19000000000003 91.32000000000001 C 184.54778970621027 92.3315850362272 184.73882018023198 93.66030811108942 185.64000000000001 94.45 C 186.3354041860565 94.97852793622192 187.19845650693972 95.23779879805105 188.07000000000002 95.18 C 189.0515201434689 95.19428619098251 190.01988213123866 94.95305722605767 190.88000000000002 94.48 C 191.66585939432704 94.05442163225224 192.29878658687895 93.39351975715661 192.69000000000003 92.59 C 193.02656833024872 91.71746019016028 193.1764593541206 90.78404790513991 193.13000000000002 89.85000000000001 Z" stroke-linecap="round" />
</g>
		<g transform="matrix(1 0 0 1 -43.85 -163.91)" id="freepik--bad-request--inject-63"  >
<path style="stroke: none; stroke-width: 1; stroke-dasharray: none; stroke-linecap: butt; stroke-dashoffset: 0; stroke-linejoin: miter; stroke-miterlimit: 4; fill: rgb(38,50,56); fill-rule: nonzero; opacity: 1;" vector-effect="non-scaling-stroke"  transform=" translate(-206.15, -86.09)" d="M 210.61 97 L 210.61 95 C 209.65793633185828 96.56886721398048 207.92293488879997 97.49010691825922 206.09 97.4 C 204.8297080380811 97.40427495553644 203.59691851933027 97.03165213489706 202.55 96.33000000000001 C 201.44261870304925 95.5917670842409 200.57123632837008 94.5502742061383 200.04000000000002 93.33000000000001 C 199.4212515789277 91.95436893326868 199.1171996327573 90.45802340043008 199.15000000000003 88.95000000000002 C 199.13080303826806 87.4487464488876 199.40246937019705 85.95797745242724 199.95000000000005 84.56000000000002 C 200.42635652862538 83.33341990533246 201.2719904828097 82.28511335055849 202.37000000000003 81.56000000000002 C 203.44530342200272 80.87934222062577 204.6976959213004 80.53145541526531 205.97000000000003 80.56000000000002 C 206.8742063569052 80.54114616867948 207.76852842299942 80.7509678841862 208.57000000000002 81.17000000000002 C 209.3038036959402 81.5590608569252 209.93976783539762 82.10954594538028 210.43000000000004 82.78000000000002 L 210.43000000000004 74.78000000000002 L 213.15000000000003 74.78000000000002 L 213.15000000000003 97 Z M 202 89 C 201.8758446154014 90.64964302791081 202.33994846356987 92.28994899510164 203.31 93.63 C 204.0441668615802 94.59093367765058 205.18075294093143 95.1592267173262 206.39000000000001 95.17 C 207.5784494446142 95.17431316954774 208.70298006155923 94.63232628203653 209.44000000000003 93.7 C 210.37274893769336 92.40498599807135 210.8156979660805 90.82100027255892 210.69000000000003 89.23 C 210.82964833972025 87.50975096419874 210.38194693302873 85.79297470389342 209.42000000000002 84.36 C 208.6709252275435 83.37823775804858 207.5048844285216 82.80447165059336 206.27 82.81 C 205.0939512294365 82.8183747560734 203.98731654609492 83.36800331546637 203.27 84.3 C 202.327941522173 85.67824380284965 201.88030362791508 87.33485648238691 202 89 Z" stroke-linecap="round" />
</g>
		<g transform="matrix(1 0 0 1 -13.69 -164.14)" id="freepik--bad-request--inject-63"  >
<path style="stroke: none; stroke-width: 1; stroke-dasharray: none; stroke-linecap: butt; stroke-dashoffset: 0; stroke-linejoin: miter; stroke-miterlimit: 4; fill: rgb(38,50,56); fill-rule: nonzero; opacity: 1;" vector-effect="non-scaling-stroke"  transform=" translate(-236.31, -85.86)" d="M 226.49 97 L 226.49 74.74 L 236.37 74.74 C 237.90346276502012 74.67368428800938 239.43667719069038 74.87675904637629 240.9 75.33999999999999 C 241.94045769925063 75.74948957363343 242.8136330682935 76.49591367942814 243.38 77.46 C 243.99989397012789 78.47021889106352 244.32223782868908 79.6348160574782 244.31 80.82 C 244.347432757769 82.30479907936457 243.79347499693827 83.7436504061977 242.77 84.82 C 241.4644048339375 86.03507863907177 239.779670107373 86.7626579968753 238 86.88 C 238.6519728888134 87.16831101722292 239.26104916067925 87.54519799207914 239.81 88 C 240.75125782870347 88.8914299231752 241.57460759679142 89.89961331267065 242.26 91 L 246.13 97 L 242.42 97 L 239.47 92.37 C 238.60999999999999 91.03 237.9 90.01 237.35 89.30000000000001 C 236.93239746567505 88.72674293570276 236.42603753678551 88.2237587396725 235.85 87.81000000000002 C 235.43630397089245 87.53667064053826 234.9801026368375 87.33391449206938 234.5 87.21000000000002 C 233.9575258645159 87.12673209945811 233.4085722198922 87.09325931624934 232.86 87.11000000000003 L 229.44000000000003 87.11000000000003 L 229.44000000000003 97 Z M 229.44 84.55 L 235.78 84.55 C 236.84892166609043 84.59260734157526 237.91734477940523 84.45398282370847 238.94 84.14 C 239.65118636926033 83.89610627700172 240.2625371504366 83.42529590529126 240.68 82.8 C 241.06696410176818 82.20488907189879 241.2719991290284 81.50985508118619 241.27 80.8 C 241.29589812768222 79.80474288635065 240.87378392934056 78.8503977422739 240.12 78.2 C 239.07342056946948 77.4410043940234 237.78777858300845 77.08585467400653 236.5 77.2 L 229.44 77.2 Z" stroke-linecap="round" />
</g>
		<g transform="matrix(1 0 0 1 5.13 -161.07)" id="freepik--bad-request--inject-63"  >
<path style="stroke: none; stroke-width: 1; stroke-dasharray: none; stroke-linecap: butt; stroke-dashoffset: 0; stroke-linejoin: miter; stroke-miterlimit: 4; fill: rgb(38,50,56); fill-rule: nonzero; opacity: 1;" vector-effect="non-scaling-stroke"  transform=" translate(-255.13, -88.93)" d="M 259.63 91.83 L 262.46 92.17 C 262.0983240872451 93.68880914002024 261.23081788894586 95.03943870891705 260 96 C 256.8000260838015 98.09161543835238 252.59133556917268 97.7587014425663 249.76 95.19 C 248.29709782421546 93.4986937186251 247.5541221886868 91.30207010054029 247.69 89.07 C 247.54572386570777 86.77094916951121 248.2984802049355 84.50551104383544 249.79 82.75 C 251.1907829841636 81.24593240797304 253.17603772162371 80.42482520957502 255.23 80.5 C 257.2285980659344 80.43334110263689 259.15806773063787 81.23576705015063 260.52 82.7 C 261.97321695847893 84.42725809676062 262.7071311437244 86.6469009984786 262.57 88.9 C 262.57 89.06 262.57 89.31 262.57 89.63000000000001 L 250.57 89.63000000000001 C 250.5437394623128 91.12023012126114 251.05090254368463 92.57078746588402 252 93.72 C 252.8687175747601 94.653280467128 254.09533352262827 95.17013347780242 255.37 95.14 C 256.2904951674212 95.16839693410914 257.1943935666525 94.89054489699136 257.94 94.35 C 258.73644589899106 93.69225446879848 259.32376066564734 92.8164951717725 259.63 91.83 Z M 250.63 87.4 L 259.63 87.4 C 259.60794463399895 86.30641585826551 259.2597256576905 85.24434798052482 258.63 84.35000000000001 C 257.81178950766997 83.31896895569976 256.55573743323555 82.7335523546359 255.24 82.77000000000001 C 254.06001953668056 82.73177030567852 252.91538656892845 83.17590234048453 252.07 84 C 251.18110924920023 84.91124645524509 250.67325933255606 86.12722512890019 250.65 87.4 Z" stroke-linecap="round" />
</g>
		<g transform="matrix(1 0 0 1 21.92 -158.14)" id="freepik--bad-request--inject-63"  >
<path style="stroke: none; stroke-width: 1; stroke-dasharray: none; stroke-linecap: butt; stroke-dashoffset: 0; stroke-linejoin: miter; stroke-miterlimit: 4; fill: rgb(38,50,56); fill-rule: nonzero; opacity: 1;" vector-effect="non-scaling-stroke"  transform=" translate(-271.92, -91.86)" d="M 276.18 103.21 L 276.18 95.30999999999999 C 275.71177087493044 95.93942783773211 275.1020058832272 96.449849094832 274.40000000000003 96.79999999999998 C 273.64537575753457 97.18848982950986 272.8087528933883 97.3907879810862 271.96000000000004 97.38999999999999 C 270.05093041580255 97.39366401656613 268.2383148352499 96.55143859529925 267.01000000000005 95.08999999999999 C 265.5421277992353 93.3340659863588 264.7983549179357 91.08486818665939 264.93000000000006 88.79999999999998 C 264.9081628720426 87.3034692991345 265.19761782590376 85.81873565344674 265.7800000000001 84.44 C 266.27437999342595 83.23369163580794 267.13026445496246 82.21012368792961 268.2300000000001 81.50999999999998 C 269.2811745938212 80.84983482224644 270.49873596539487 80.5029512406015 271.74000000000007 80.50999999999998 C 273.6412553084424 80.45429348421949 275.43257446324776 81.39929024173335 276.46 83 L 276.46 80.88 L 278.91999999999996 80.88 L 278.91999999999996 103.21 Z M 267.75 88.91 C 267.62631849008136 90.57055286324767 268.0860923789856 92.2222021410806 269.05 93.58 C 269.8008658915837 94.55545899775694 270.9590506279792 95.13086287953304 272.19 95.14 C 273.36362763528274 95.13105135844759 274.4687211643724 94.58587188409665 275.19 93.66 C 276.1358359340232 92.35535770029165 276.58607203131965 90.75648777997117 276.46 89.14999999999999 C 276.58151125903265 87.42908690216065 276.1123421083735 85.71820691667435 275.13 84.3 C 274.39568890587634 83.30091808988334 273.23957452395985 82.6988521338054 272 82.67 C 270.8165105187896 82.67628678540366 269.7050508130912 83.2394263696242 269 84.19 C 268.05838366102705 85.57525943452488 267.61743920786813 87.24026568965286 267.75 88.91 Z" stroke-linecap="round" />
</g>
		<g transform="matrix(1 0 0 1 39.68 -160.86)" id="freepik--bad-request--inject-63"  >
<path style="stroke: none; stroke-width: 1; stroke-dasharray: none; stroke-linecap: butt; stroke-dashoffset: 0; stroke-linejoin: miter; stroke-miterlimit: 4; fill: rgb(38,50,56); fill-rule: nonzero; opacity: 1;" vector-effect="non-scaling-stroke"  transform=" translate(-289.68, -89.14)" d="M 293.78 97 L 293.78 94.65 C 292.67345059115337 96.39964685543572 290.7295952224804 97.4399132050771 288.65999999999997 97.39 C 287.7410690870858 97.39806476351947 286.83093222992443 97.21058338844877 285.98999999999995 96.84 C 285.2692458268714 96.55379836702136 284.6376345001582 96.08095272899013 284.15999999999997 95.47 C 283.7334656868509 94.87371236983783 283.44327935017577 94.19092098942582 283.30999999999995 93.47 C 283.17509708089335 92.62366869023255 283.1181915223284 91.76673792595975 283.13999999999993 90.91 L 283.13999999999993 80.91 L 285.87999999999994 80.91 L 285.87999999999994 89.91 C 285.84921975137195 90.87649119577218 285.906119268065 91.84378297955506 286.04999999999995 92.8 C 286.19190941603955 93.48142920620266 286.5799693477282 94.08666029232263 287.13999999999993 94.5 C 287.7457698158582 94.922061052475 288.47215823117654 95.13611754201328 289.2099999999999 95.11 C 290.0226985084807 95.11196646433551 290.8208273361253 94.89429496588698 291.5199999999999 94.48 C 292.2098507902973 94.0962073043206 292.74920652673154 93.48987275094356 293.0499999999999 92.76 C 293.3960163566164 91.74746381772336 293.5486655713143 90.6789193148382 293.4999999999999 89.61 L 293.4999999999999 80.88 L 296.2299999999999 80.88 L 296.2299999999999 97 Z" stroke-linecap="round" />
</g>
		<g transform="matrix(1 0 0 1 57.05 -161.07)" id="freepik--bad-request--inject-63"  >
<path style="stroke: none; stroke-width: 1; stroke-dasharray: none; stroke-linecap: butt; stroke-dashoffset: 0; stroke-linejoin: miter; stroke-miterlimit: 4; fill: rgb(38,50,56); fill-rule: nonzero; opacity: 1;" vector-effect="non-scaling-stroke"  transform=" translate(-307.05, -88.93)" d="M 311.57 91.83 L 314.4 92.17 C 314.02937224213963 93.69001167479756 313.15530403176194 95.03988314485669 311.92 96 C 308.72002608380154 98.09161543835238 304.5113355691727 97.7587014425663 301.68 95.19 C 300.2170978242155 93.4986937186251 299.4741221886868 91.30207010054029 299.61 89.07 C 299.4671535178148 86.77284080515331 300.2157672254435 84.5090902634242 301.7 82.75 C 303.1061802936074 81.24769111356758 305.09355219691525 80.42721647458727 307.15 80.5 C 309.1485980659344 80.43334110263689 311.0780677306379 81.23576705015061 312.44 82.7 C 313.89321695847894 84.42725809676062 314.6271311437244 86.6469009984786 314.49 88.9 C 314.49 89.06 314.49 89.31 314.49 89.63000000000001 L 302.49 89.63000000000001 C 302.48641570957454 91.12430545727503 303.0226422409435 92.56963127361385 304 93.70000000000002 C 304.8672028075016 94.63544543385592 306.09484211213265 95.15272965123756 307.37 95.12000000000002 C 308.2904951674212 95.14839693410916 309.1943935666525 94.87054489699138 309.94 94.33000000000001 C 310.71116030039207 93.66963082159006 311.2768393348188 92.80202494056746 311.57 91.83 Z M 302.57 87.4 L 311.57 87.4 C 311.54794463399895 86.30641585826551 311.1997256576905 85.24434798052482 310.57 84.35000000000001 C 309.7497973406111 83.32149664454853 308.4950828471961 82.7367034588271 307.18 82.77000000000001 C 305.9965896338945 82.72901860588848 304.847818825619 83.17335448456107 304 84 C 303.1147680629592 84.91281339722337 302.6105713918864 86.1286067884626 302.59 87.4 Z" stroke-linecap="round" />
</g>
		<g transform="matrix(1 0 0 1 73.45 -161.04)" id="freepik--bad-request--inject-63"  >
<path style="stroke: none; stroke-width: 1; stroke-dasharray: none; stroke-linecap: butt; stroke-dashoffset: 0; stroke-linejoin: miter; stroke-miterlimit: 4; fill: rgb(38,50,56); fill-rule: nonzero; opacity: 1;" vector-effect="non-scaling-stroke"  transform=" translate(-323.45, -88.96)" d="M 316.74 92.21 L 319.44 91.77999999999999 C 319.5316100624197 92.74120706514582 319.9856922403827 93.63149416997096 320.71 94.26999999999998 C 321.54717364376586 94.89385118583955 322.57778628767613 95.20197249175087 323.62 95.13999999999999 C 324.6144659510312 95.21663404845013 325.60455713019235 94.94435897418083 326.42 94.36999999999999 C 326.98665869675585 93.94408835783247 327.32297892651724 93.27883955171109 327.33000000000004 92.57 C 327.3401697320552 91.97613259778116 327.03600498770265 91.42103193933787 326.53000000000003 91.11 C 325.6370752673902 90.6894945009906 324.69706819621916 90.37727786663739 323.73 90.17999999999999 C 322.3039376145739 89.86772606252087 320.9084484810699 89.4293349918038 319.56 88.86999999999999 C 318.1026779314113 88.21983087933476 317.1712273977854 86.76566759899056 317.19 85.16999999999999 C 317.1857912686519 84.47188977574872 317.3577639550452 83.78399903017552 317.69 83.16999999999999 C 318.00457959979957 82.56697861269681 318.45261962060914 82.0436952296139 319 81.64 C 319.53247338077796 81.2801958421904 320.1202409697657 81.009957870242 320.74 80.84 C 321.5112144745161 80.62334688235418 322.30894363496157 80.51563661596492 323.11 80.52000000000001 C 324.24346607035716 80.4979375816333 325.3715910618995 80.68087676945098 326.44 81.06000000000002 C 327.27774093941343 81.33752948008649 328.01512034225897 81.85578198491662 328.56 82.55000000000001 C 329.0851608334767 83.2931708717363 329.427757243734 84.14966189737946 329.56 85.05000000000001 L 326.88 85.41000000000001 C 326.81105313770706 84.62760112381257 326.42876190185325 83.90629690522049 325.82 83.41000000000001 C 325.09867525566597 82.90668344908698 324.2277424688113 82.6633864357551 323.34999999999997 82.72000000000001 C 322.4103292857438 82.63698640299408 321.46853509332664 82.8540542094248 320.65999999999997 83.34000000000002 C 320.1733319632333 83.66903348649159 319.87540921518365 84.21274250168216 319.85999999999996 84.80000000000001 C 319.8499291931354 85.1616301851096 319.96667055805807 85.51539189699653 320.18999999999994 85.80000000000001 C 320.46984664861793 86.13129026347484 320.83198445336933 86.38306226106388 321.23999999999995 86.53000000000002 C 321.50999999999993 86.63000000000001 322.31999999999994 86.86000000000001 323.65999999999997 87.22000000000001 C 325.0346367570604 87.56034247446202 326.38716338149516 87.98446810730944 327.71 88.49000000000001 C 328.4336644396945 88.79086347498915 329.0576214888581 89.29002911432005 329.51 89.93 C 329.96394148235265 90.62378601617725 330.1910802874256 91.44148571443989 330.15999999999997 92.27000000000001 C 330.1586572853138 93.1893600750781 329.88364325970014 94.08750714606963 329.36999999999995 94.85000000000001 C 328.78288185557074 95.69685926117553 327.95824700140537 96.35099998937419 327 96.73 C 325.92499092965016 97.18435914942324 324.7669274371279 97.4091597097364 323.6 97.39 C 321.8983359344914 97.5042807600024 320.207690206806 97.04287536348826 318.8 96.08 C 317.6497511274881 95.09603364586557 316.91391779160426 93.71366713621961 316.74 92.21 Z" stroke-linecap="round" />
</g>
		<g transform="matrix(1 0 0 1 85.83 -163.76)" id="freepik--bad-request--inject-63"  >
<path style="stroke: none; stroke-width: 1; stroke-dasharray: none; stroke-linecap: butt; stroke-dashoffset: 0; stroke-linejoin: miter; stroke-miterlimit: 4; fill: rgb(38,50,56); fill-rule: nonzero; opacity: 1;" vector-effect="non-scaling-stroke"  transform=" translate(-335.83, -86.24)" d="M 339.37 94.58 L 339.77 96.99 C 339.09091959920534 97.14708427374052 338.39695250210167 97.23089672508155 337.7 97.24 C 336.9012595387105 97.28494722459213 336.10471377130153 97.11943122097469 335.39 96.75999999999999 C 334.87895227262146 96.48824820365293 334.4713757709517 96.05607656826176 334.22999999999996 95.52999999999999 C 333.944780614023 94.47849883972353 333.8333116955976 93.38745457755978 333.9 92.29999999999998 L 333.9 83 L 331.9 83 L 331.9 80.88 L 333.9 80.88 L 333.9 76.88 L 336.62 75.24 L 336.62 80.88 L 339.37 80.88 L 339.37 83 L 336.62 83 L 336.62 92.44 C 336.5906405540198 92.94420111426827 336.6378428902419 93.44994043093396 336.76 93.94 C 336.8596604287823 94.16261899873501 337.0232577337698 94.35058185978447 337.23 94.48 C 337.52133885238334 94.62441002735781 337.8454453200315 94.68992090911648 338.17 94.67 C 338.5715599170927 94.66680510438793 338.9724558091726 94.63673791248195 339.37 94.58 Z" stroke-linecap="round" />
</g>
</g>
</g>
</svg>